<svg xmlns="http://www.w3.org/2000/svg" viewBox="0 0 196.53 196.53"><defs><style>.cls-1{fill:#707a80;}.cls-2{fill:none;}</style></defs><g id="Capa_2" data-name="Capa 2"><g id="Capa_1-2" data-name="Capa 1"><g id="FVPuTI"><path class="cls-1" d="M108.24,66h56.21c3.24,0,4.2,1,4.2,4.18q0,35,0,70c0,8.44-5.05,14.73-13,16.16a19.84,19.84,0,0,1-3.36.23H60.08c-8.39,0-14.71-5.12-16.11-13.05a22.71,22.71,0,0,1-.2-3.79c0-21.48,0-42.95-.05-64.43a139.54,139.54,0,0,0-.92-14.59A15.88,15.88,0,0,1,57.3,42.81c11.8-1.15,23.58-2.48,35.36-3.71l34.93-3.64c7.52-.79,15-1.72,22.56-2.33,8.88-.73,16.07,5.48,16.94,14.35.26,2.62.55,5.24.84,7.85.33,3-.69,4.19-3.73,4.51q-18.69,2-37.39,4L109.2,65.65l-1,.11Zm54.19,28.23H50V140c0,6.53,3.82,10.35,10.36,10.35h91.77c6.46,0,10.32-3.83,10.32-10.25V94.18ZM108.66,72.35a4.16,4.16,0,0,0-.68-.16c-7.12,0-14.24,0-21.36,0a2.45,2.45,0,0,0-1.54.84q-5.89,6.8-11.73,13.65c-.25.3-.45.65-.8,1.15,6.57,0,12.86-.15,19.14.07a6.72,6.72,0,0,0,6.15-2.83C101.24,80.77,104.94,76.68,108.66,72.35Zm31.31-.1c-.57,0-.8-.07-1-.07-7,0-13.95,0-20.93,0a2.76,2.76,0,0,0-1.79.93c-3.94,4.52-7.83,9.09-11.72,13.65-.22.27-.38.58-.69,1H121c1.85,0,3.94.49,5.48-.22s2.54-2.61,3.74-4C133.42,79.92,136.58,76.22,140,72.25ZM70.63,47.75l-.31.45a8,8,0,0,1,1.23.78C75.82,53,80.1,57,84.32,61a2.57,2.57,0,0,0,2.35.74c4.41-.5,8.82-.94,13.24-1.42,2.63-.28,5.25-.58,8.21-.92l-1.31-1.2c-4.12-3.89-8.26-7.74-12.32-11.69a3.57,3.57,0,0,0-3.25-1c-4.46.52-8.92,1-13.38,1.43ZM139,56.21c-.27-.34-.37-.51-.5-.64-4.54-4.29-9.06-8.6-13.63-12.85a2.44,2.44,0,0,0-1.69-.49c-5.19.48-10.38,1-15.57,1.58l-6,.66c.13.28.16.43.26.52q7,6.59,13.94,13.15a1.64,1.64,0,0,0,1.15.4C124.25,57.79,131.51,57,139,56.21ZM50,87.85c4.36,0,8.55,0,12.73,0a2.61,2.61,0,0,0,2.25-1c3.8-4.5,7.66-9,11.49-13.44.27-.32.5-.67.85-1.14H50ZM162.39,72.18H161c-3.81,0-7.61-.05-11.41,0a3.2,3.2,0,0,0-2.07,1c-3.92,4.46-7.77,9-11.63,13.51-.26.3-.47.66-.74,1h27.28ZM77.05,62.75,65.62,51.94c-3.72-3.52-3.72-3.52-8.78-2.72-3.79.6-7.13,3.38-7.58,7.12-.37,3,.07,6.15.16,9.33Zm55.5-21.55c.44.47.68.77.95,1,3.29,3.12,6.78,6.05,9.81,9.4,2.62,2.88,5.33,4.17,9.26,3.26a74.34,74.34,0,0,1,8.88-1.05c-.23-2.14-.35-4.13-.65-6.09-.83-5.58-4.78-8.86-10.38-8.4C144.56,39.82,138.71,40.55,132.55,41.2Z"/><path class="cls-1" d="M90.61,122c0-4.59,0-9.18,0-13.77,0-5.66,4.89-8.44,9.82-5.61q11.92,6.86,23.81,13.75c5.17,3,5.16,8.56,0,11.56q-11.88,6.9-23.81,13.74c-4.94,2.84-9.78,0-9.81-5.62C90.59,131.41,90.61,126.72,90.61,122Zm6.3,14.49,24.83-14.35L96.91,107.84Z"/></g><rect class="cls-2" width="196.53" height="196.53"/></g></g></svg>