<svg xmlns="http://www.w3.org/2000/svg" viewBox="0 0 131.08 109.52"><defs><style>.cls-1{fill:#fff;}.cls-2{fill:none;}</style></defs><g id="Capa_2" data-name="Capa 2"><g id="Capa_1-2" data-name="Capa 1"><path class="cls-1" d="M115.28,67.44c-.46,1.61-1.08,3.19-2.59,4.06a10,10,0,0,1-3.43,1.24c-3.83.57-7.68,1-11.66,1.45,0,.87,0,1.72,0,2.57A6.3,6.3,0,0,1,91,83.4H24.55c-2.81,0-5.06-1-6.3-3.6a7.8,7.8,0,0,1-.64-3c-.08-2.89,0-5.79,0-8.68,0-1.81.51-2.38,2.3-2.6,4.76-.6,7.61-4.94,6-9.35a6.7,6.7,0,0,0-5.59-4.58l-.85-.13a1.94,1.94,0,0,1-1.89-2.19c0-3.11-.05-6.23,0-9.35a6.14,6.14,0,0,1,6.13-6.25c2.73-.09,5.47,0,8.2,0a1.75,1.75,0,0,0,1.1-.38,7,7,0,0,1,4.41-2l31.8-3.8,31.14-3.69c1.13-.14,2.27-.31,3.41-.4A6.25,6.25,0,0,1,110.84,29c.39,2.83.7,5.68,1,8.52.24,2.23-.09,2.66-2.24,3.19a7,7,0,0,0,1.65,13.78c2.21,0,2.65.38,2.92,2.58.32,2.55.62,5.11.93,7.66a4.54,4.54,0,0,0,.18.63Zm-35.76,12a5.2,5.2,0,0,0,.57.09c3.69,0,7.38,0,11.07,0a2.45,2.45,0,0,0,2.61-2.65c0-2.32,0-4.64,0-7a.88.88,0,0,0-.8-1,10.12,10.12,0,0,1-5.14-3.11,10.81,10.81,0,0,1,5.09-17.73c.62-.17.87-.4.86-1.09,0-2.25,0-4.51,0-6.77A2.48,2.48,0,0,0,91,37.44c-3.6,0-7.19,0-10.78,0-.22,0-.43,0-.73.08V59.67a7.27,7.27,0,0,1-.1,1.32,1.85,1.85,0,0,1-3.66-.13,8.62,8.62,0,0,1-.05-1.14q0-10.55,0-21.08V37.5c-.33,0-.55-.07-.77-.07H24.18a2.52,2.52,0,0,0-2.78,2.85c0,2.17,0,4.33,0,6.49a1.15,1.15,0,0,0,1,1.36,10.29,10.29,0,0,1,7.52,8,10.41,10.41,0,0,1-3.21,10.32,11.29,11.29,0,0,1-5.29,2.73v7.3c0,2.19.91,3.11,3.12,3.11q25,0,50.08,0c.34,0,.68,0,1.16,0,0-1.32-.06-2.56,0-3.79a1.73,1.73,0,0,1,1.61-1.61,1.84,1.84,0,0,1,2,1.19,4.87,4.87,0,0,1,.16,1.32C79.54,77.58,79.52,78.53,79.52,79.49Zm31-21.16c-3-.53-4.71-1.25-6.33-2.67a10.81,10.81,0,0,1,3-18.2c.54-.22.78-.44.68-1.1-.31-2.2-.55-4.41-.8-6.62-.22-1.92-1.21-2.78-3.13-2.59-1.7.16-3.41.39-5.11.59l-20,2.37L57,32.72l-6,.75,0,.14H90.24c.48,0,1,0,1.43,0a6,6,0,0,1,5.63,4.49,13.15,13.15,0,0,1,.28,3.21c0,2.6,0,5.21,0,7.82,0,1.48-.53,2-2,2.29l-.94.13a7,7,0,0,0,.75,13.91c1.63.21,2.16.79,2.18,2.42,0,.77,0,1.55,0,2.43,4.06-.5,8-.93,11.87-1.49a2.3,2.3,0,0,0,2-2.73C111.16,63.54,110.81,61,110.49,58.33Z"/><path class="cls-1" d="M65.5,55.56a9.24,9.24,0,0,1-1,1.51q-2.55,2.58-5.18,5.07a1.38,1.38,0,0,0-.46,1.43c.43,2.34.83,4.69,1.24,7A2,2,0,0,1,57,72.87c-2.13-1.14-4.28-2.23-6.4-3.38a1.27,1.27,0,0,0-1.39,0c-2.09,1.14-4.22,2.22-6.32,3.34a2.16,2.16,0,0,1-2.42.12,2.14,2.14,0,0,1-.73-2.39c.41-2.37.78-4.76,1.24-7.13a1.2,1.2,0,0,0-.43-1.24c-1.72-1.65-3.41-3.33-5.12-5a2.13,2.13,0,0,1-.87-2.34,2.17,2.17,0,0,1,2.07-1.39c2.4-.33,4.78-.68,7.16-1.08a1.5,1.5,0,0,0,1-.71c1.11-2.14,2.16-4.31,3.22-6.48a2,2,0,0,1,3.89,0c1,2.15,2.12,4.27,3.15,6.42a1.32,1.32,0,0,0,1.13.83c2.42.32,4.84.7,7.26,1A2.25,2.25,0,0,1,65.5,55.56ZM49.89,49.92c-.81,1.63-1.56,3.12-2.29,4.62a2.45,2.45,0,0,1-2,1.49c-1.65.21-3.3.49-5,.74a41.07,41.07,0,0,0,3,3,3.4,3.4,0,0,1,1.22,3.87c-.35,1.32-.48,2.7-.73,4.21,1.55-.81,2.95-1.48,4.29-2.26a2.79,2.79,0,0,1,3.12,0c1.33.78,2.73,1.45,4.25,2.24-.27-1.64-.43-3.15-.79-4.62A3,3,0,0,1,56,60c1.09-1,2-2.15,3-3.24-1.55-.23-3.17-.52-4.8-.71a2.44,2.44,0,0,1-2.1-1.53C51.44,53,50.7,51.55,49.89,49.92Z"/><path class="cls-1" d="M75.72,68.33a1.81,1.81,0,0,1,1.85-1.86,1.84,1.84,0,0,1,1.93,1.8,1.93,1.93,0,0,1-1.91,2A1.91,1.91,0,0,1,75.72,68.33Z"/><rect class="cls-2" width="131.08" height="109.52"/></g></g></svg>