<svg xmlns="http://www.w3.org/2000/svg" viewBox="0 0 112.85 92.44"><defs><style>.cls-1{fill:#e0cf92;}</style></defs><g id="Capa_2" data-name="Capa 2"><g id="Capa_1-2" data-name="Capa 1"><path class="cls-1" d="M57.07,0A46.31,46.31,0,0,0,13.76,30.08h3a43.42,43.42,0,0,1,80.62,0h3A46.3,46.3,0,0,0,57.07,0Z"/><path class="cls-1" d="M38.22,30.08h2a23.66,23.66,0,0,1,32.41,0h2a25.1,25.1,0,0,0-36.41,0Z"/><path class="cls-1" d="M112.85,33H0L6.58,47.44,0,61.92H112.85l-6.58-14.48ZM110,59.91H2.86L8.53,47.44,2.86,35H110l-5.67,12.46Z"/><path class="cls-1" d="M17.27,47.44A2.45,2.45,0,1,1,14.83,45,2.44,2.44,0,0,1,17.27,47.44Z"/><path class="cls-1" d="M95.57,47.44A2.45,2.45,0,1,0,98,45,2.45,2.45,0,0,0,95.57,47.44Z"/><path class="cls-1" d="M74.63,64.81h-2a23.66,23.66,0,0,1-32.41,0h-2a25.1,25.1,0,0,0,36.41,0Z"/><path class="cls-1" d="M57.07,92.44a46.28,46.28,0,0,0,42.3-27.63H96.31a43.42,43.42,0,0,1-78.48,0H14.77A46.28,46.28,0,0,0,57.07,92.44Z"/><path class="cls-1" d="M37,26.6a1.81,1.81,0,0,1-.28.25,1.4,1.4,0,0,1-.4.23,1.65,1.65,0,0,1-.53.13,2.35,2.35,0,0,1-.67-.07,3.42,3.42,0,0,1-.81-.35,5.57,5.57,0,0,1-1-.7L31,23.94a4.8,4.8,0,0,1-.8-.87,3.49,3.49,0,0,1-.42-.77,1.84,1.84,0,0,1-.11-.67,2.13,2.13,0,0,1,.11-.58,2.17,2.17,0,0,1,.25-.48,2.8,2.8,0,0,1,.29-.37,2.42,2.42,0,0,1,.73-.6,1.56,1.56,0,0,1,.73-.19,1.58,1.58,0,0,1,.69.16A2.47,2.47,0,0,1,33,20a4.77,4.77,0,0,1,.39.39c.1.13.22.27.34.44l-.73.82-.33-.29c-.74-.66-1.3-.79-1.65-.39a.84.84,0,0,0-.2.33.67.67,0,0,0,0,.37,1.4,1.4,0,0,0,.25.43,4.82,4.82,0,0,0,.51.53l3.09,2.75a4,4,0,0,0,.57.43,1.46,1.46,0,0,0,.44.19.62.62,0,0,0,.36,0,.86.86,0,0,0,.3-.23.63.63,0,0,0,.17-.38.8.8,0,0,0-.06-.42,2.3,2.3,0,0,0-.26-.44,3.57,3.57,0,0,0-.43-.45l-.89-.79-.47.53-.68-.6,1.37-1.54,3.45,3.07-.61.69-.75-.47a1.86,1.86,0,0,1,.15.94A1.44,1.44,0,0,1,37,26.6Z"/><path class="cls-1" d="M34.53,16.27l1.26-1,6.88,6.22-1.11.85-1.19-1.14-1.32,1,.8,1.44-1.12.86Zm5.08,4.23-3.27-3.23-.05,0,2.25,4Z"/><path class="cls-1" d="M39.08,13.11l1.35-.67.51-.23a5.26,5.26,0,0,1,.6-.18,2.72,2.72,0,0,1,.64,0,1.83,1.83,0,0,1,.66.19,2.15,2.15,0,0,1,.64.49,3.73,3.73,0,0,1,.59.88l.1.21a4,4,0,0,1,.48,1.65,1.87,1.87,0,0,1-.37,1.24l2.93,2.62-1.31.65L43.3,17.4l-.47.23,1.52,3.06-1.22.6Zm3.5,3.53a2.15,2.15,0,0,0,.51-.34.9.9,0,0,0,.25-.43,1.17,1.17,0,0,0,0-.55A3.6,3.6,0,0,0,43,14.6L42.71,14a2.37,2.37,0,0,0-.32-.51,1,1,0,0,0-.38-.29,1,1,0,0,0-.47,0,2.33,2.33,0,0,0-.61.21l-.18.09,1.64,3.32Z"/><path class="cls-1" d="M46.43,10,48,9.61,52,18l-1.35.37L50,16.83l-1.61.44.2,1.64-1.36.37Zm3.11,5.84-1.81-4.22h-.06l.57,4.56Z"/><path class="cls-1" d="M51.9,8.81,53,8.74l2.6,5.95h0c0-.14,0-.3-.08-.47s-.06-.37-.08-.6-.06-.47-.09-.75-.06-.59-.08-.95L55.12,8.6l1.23-.08.59,9.11-1.13.07-2.58-5.79h0c0,.16.05.34.08.52s.06.4.09.66.06.54.09.88.06.73.09,1.19l.18,2.68-1.23.08Z"/><path class="cls-1" d="M60,9.86l-1.45-.18.13-1.08,4.28.53-.13,1.08L61.35,10l-1,8L59,17.83Z"/><path class="cls-1" d="M64.77,9.59l1.33.35-2.34,8.82-1.34-.35Zm.31-.7,2-.68.44,1-2,.38Z"/><path class="cls-1" d="M69.53,11.12l1.46.63L68.93,20.8l-1.28-.56.41-1.6L66.53,18l-.86,1.41-1.3-.55Zm-1.2,6.5,1.21-4.43-.06,0-2.39,3.92Z"/><path class="cls-1" d="M77,15.17l1.11.9.52.45A2.8,2.8,0,0,1,79,17a2.06,2.06,0,0,1,.31.63,1.89,1.89,0,0,1,0,.76,3,3,0,0,1-.29.93,6.42,6.42,0,0,1-.75,1.12l-1.67,2.05a6.17,6.17,0,0,1-1,1,3.11,3.11,0,0,1-.85.48,1.88,1.88,0,0,1-.76.1,2.13,2.13,0,0,1-.67-.17,2.8,2.8,0,0,1-.61-.34l-.53-.41-1.12-.91Zm-3.81,7.42a1.69,1.69,0,0,0,.54.31.75.75,0,0,0,.51,0,1.53,1.53,0,0,0,.57-.39,7.61,7.61,0,0,0,.71-.79l1.79-2.19a8.61,8.61,0,0,0,.63-.86,1.8,1.8,0,0,0,.27-.63.79.79,0,0,0-.08-.51,1.75,1.75,0,0,0-.42-.46l-.28-.23-4.51,5.54Z"/><path class="cls-1" d="M82.15,19.8l2.2,2.58-.83.7-1.3-1.52-2.07,1.78,1,1.17-.83.71-1-1.18-2.38,2,1.33,1.56-.83.71-2.23-2.61Z"/><path class="cls-1" d="M40,46.52v.31a1.53,1.53,0,0,1-.14.75c-.1.16-.21.33-.35.52-.78,1-1.66,2-2.64,3a25.94,25.94,0,0,1-3.12,2.74,17.38,17.38,0,0,1-3.39,2,8.53,8.53,0,0,1-3.45.77,5.93,5.93,0,0,1-2.12-.36,4.81,4.81,0,0,1-1.65-1,4.68,4.68,0,0,1-1.06-1.67,6.51,6.51,0,0,1-.37-2.29,8,8,0,0,1,.19-1.72,13.55,13.55,0,0,1,.52-1.8c.21-.6.45-1.2.72-1.79s.53-1.15.79-1.7c.08-.13.21-.31.37-.55a3.79,3.79,0,0,0,.32-.54h-.2a9.07,9.07,0,0,0-4,.71A2.09,2.09,0,0,0,19,45.69a1.06,1.06,0,0,0,.06.37.79.79,0,0,1,.06.28.68.68,0,0,1-.05.22.24.24,0,0,1-.26.17.45.45,0,0,1-.32-.13,1.12,1.12,0,0,1-.24-.32,2.2,2.2,0,0,1-.17-.39,1,1,0,0,1-.07-.35,2.33,2.33,0,0,1,.73-1.72,5,5,0,0,1,1.69-1,9,9,0,0,1,2.12-.51c.75-.1,1.41-.16,2-.2a2,2,0,0,0,.79-.19,1.75,1.75,0,0,0,.58-.48,17.89,17.89,0,0,1,1.4-1.54A14.15,14.15,0,0,1,29,38.45a11.37,11.37,0,0,1,1.87-1.11,8.84,8.84,0,0,1,2-.68,2.92,2.92,0,0,1,1.08-.2,3.72,3.72,0,0,1,1,.14,3.6,3.6,0,0,1,.94.4,2.35,2.35,0,0,1,.7.62,1.31,1.31,0,0,1,.27.8,1.47,1.47,0,0,1-.25.83A3.13,3.13,0,0,1,36,40q-.78.62-1.5,1.11A11.24,11.24,0,0,1,33,42a10.81,10.81,0,0,1-1.65.62,12.91,12.91,0,0,1-2,.37l-1,.12a.56.56,0,0,0-.51.3,10.21,10.21,0,0,0-1.2,1.69,17.28,17.28,0,0,0-1.05,2.11,14.5,14.5,0,0,0-.73,2.26,9.13,9.13,0,0,0-.28,2.19A5.31,5.31,0,0,0,24.79,53a3.21,3.21,0,0,0,.53,1.08,2.59,2.59,0,0,0,.93.73,3.43,3.43,0,0,0,1.4.26,7.51,7.51,0,0,0,1.4-.16,12.12,12.12,0,0,0,3.16-1.49,29,29,0,0,0,2.91-2.18c.92-.8,1.79-1.61,2.61-2.44S39.31,47.19,40,46.52Zm-4.22-8.3a2,2,0,0,0-1.08-.31,3.86,3.86,0,0,0-1.66.41,10.72,10.72,0,0,0-1.69,1,13.06,13.06,0,0,0-1.49,1.21,10.13,10.13,0,0,0-1,1,1.35,1.35,0,0,0,.34,0,5.54,5.54,0,0,0,1.24-.17A12.85,12.85,0,0,0,31.88,41a15.23,15.23,0,0,0,1.44-.62,13.93,13.93,0,0,0,1.25-.71,5.55,5.55,0,0,0,.9-.73,1,1,0,0,0,.33-.67Z"/><path class="cls-1" d="M47.78,50.58c.12-.19.28-.42.46-.71l.57-.88.56-.88c.19-.28.34-.53.46-.73s.15-.1.24,0a1.11,1.11,0,0,1,.2.3,1.73,1.73,0,0,1-.05.31c-.26.57-.57,1.18-.92,1.85a14.83,14.83,0,0,1-1.18,1.84,7.63,7.63,0,0,1-1.42,1.42,2.71,2.71,0,0,1-1.66.58,1.27,1.27,0,0,1-.94-.38,11.26,11.26,0,0,1-.9-1,16.23,16.23,0,0,1-1.45,1,2.78,2.78,0,0,1-1.52.49,1.43,1.43,0,0,1-.74-.22A2.52,2.52,0,0,1,38.8,53a3.16,3.16,0,0,1-.5-.91,3.27,3.27,0,0,1-.19-1.15,5.85,5.85,0,0,1,.45-2.2,8.08,8.08,0,0,1,1.19-2,6.42,6.42,0,0,1,1.71-1.5,3.79,3.79,0,0,1,2-.58,4.28,4.28,0,0,1,1.89.44l.64-.53a1.08,1.08,0,0,1,.71-.3,1.22,1.22,0,0,1,.35.06,2.64,2.64,0,0,1,.38.18,1.18,1.18,0,0,1,.33.3.7.7,0,0,1,.13.39,1,1,0,0,1-.12.42,2.44,2.44,0,0,1-.25.43c-.19.43-.37.84-.55,1.22s-.36.78-.52,1.17-.31.78-.44,1.18-.24.84-.35,1.3a5,5,0,0,0-.17.62,4,4,0,0,0,0,.44c0,.33.1.49.31.49a.85.85,0,0,0,.45-.17,3.41,3.41,0,0,0,.55-.44,6.19,6.19,0,0,0,.55-.59A7.77,7.77,0,0,0,47.78,50.58Zm-2.92-4.7a.81.81,0,0,0-.41-.11,2.13,2.13,0,0,0-1.18.56,8.81,8.81,0,0,0-1.4,1.4,9.62,9.62,0,0,0-1.18,1.82,4.3,4.3,0,0,0-.49,1.86.89.89,0,0,0,.75,1,6.8,6.8,0,0,0,1.24-.79,6.49,6.49,0,0,0,1-1,8.09,8.09,0,0,1,.27-1.15q.19-.63.45-1.26c.17-.43.35-.84.52-1.23S44.74,46.19,44.86,45.88Z"/><path class="cls-1" d="M51,49c-.25.65-.47,1.33-.68,2A7.38,7.38,0,0,0,50,53a2.09,2.09,0,0,0,.06.47,2,2,0,0,0,.15.49,1.46,1.46,0,0,0,.26.4.48.48,0,0,0,.36.17,2,2,0,0,0,1.31-.51,6.49,6.49,0,0,0,1.11-1.21,11.85,11.85,0,0,0,.89-1.48c.26-.5.49-.92.68-1.25a3.72,3.72,0,0,1,.18-.45q.15-.37.33-.78c.12-.27.25-.51.38-.74s.25-.33.35-.33a.31.31,0,0,1,.28.18.65.65,0,0,1,.11.31.78.78,0,0,1-.06.26c-.27.67-.61,1.42-1,2.25A19,19,0,0,1,54,53.16,9.09,9.09,0,0,1,52.44,55a2.59,2.59,0,0,1-3.32.24,2.21,2.21,0,0,1-.95-1.45l-.08-.41a2.66,2.66,0,0,1,0-.3v-.32a9.52,9.52,0,0,1,.31-2.18c.21-.86.48-1.78.81-2.75s.73-2,1.17-3,.89-2,1.34-2.86.91-1.69,1.35-2.39A8.63,8.63,0,0,1,54.25,38a1.82,1.82,0,0,1,.77-.62,2.61,2.61,0,0,1,1-.2,2.72,2.72,0,0,1,.69.09,1.84,1.84,0,0,1,.62.28,1.57,1.57,0,0,1,.45.53,1.76,1.76,0,0,1,.18.83,8,8,0,0,1-1.81,4.2A43.77,43.77,0,0,1,51,49ZM55,40.65l-1.61,3c-.53,1-1,2-1.47,3a34.86,34.86,0,0,0,2.74-3.11,18.61,18.61,0,0,0,1.52-2.23,6.72,6.72,0,0,0,.63-1.49,4,4,0,0,0,.13-.86.78.78,0,0,0,0-.22.93.93,0,0,1,0-.14l-.05-.07a1,1,0,0,0-.66.23,2.28,2.28,0,0,0-.47.55,6.56,6.56,0,0,0-.36.7A7.38,7.38,0,0,1,55,40.65Z"/><path class="cls-1" d="M56.3,52.47a1.18,1.18,0,0,0,.71-.25,4.08,4.08,0,0,0,.67-.65,8.44,8.44,0,0,0,.61-.83c.19-.29.37-.56.54-.8s.27-.36.43-.61.33-.49.49-.73a6.61,6.61,0,0,1,.49-.6c.17-.18.3-.26.4-.26a.5.5,0,0,1,.29.09.27.27,0,0,1,.13.24,1,1,0,0,1-.05.24.7.7,0,0,1-.13.23c-.24.43-.54.94-.9,1.54a16.48,16.48,0,0,1-1.15,1.71,8.65,8.65,0,0,1-1.3,1.38,2.14,2.14,0,0,1-1.36.57,1.43,1.43,0,0,1-.71-.19,2.4,2.4,0,0,1-.64-.51,2.33,2.33,0,0,1-.45-.7,1.91,1.91,0,0,1-.17-.77,7.49,7.49,0,0,1,.16-1.52,10.78,10.78,0,0,1,.42-1.55A9.7,9.7,0,0,1,55.44,47a11.77,11.77,0,0,1,.83-1.31A3,3,0,0,1,57,45a1.64,1.64,0,0,1,.93-.27.9.9,0,0,1,.51.14.49.49,0,0,1,.21.43,1.35,1.35,0,0,1-.19.64l-.33.6a22.28,22.28,0,0,0-1,2.22,15.18,15.18,0,0,0-.74,2.34c0,.14-.07.28-.12.43a1.52,1.52,0,0,0-.06.42A1,1,0,0,0,56.3,52.47Zm3.8-9.65a.41.41,0,0,0,0,.11.3.3,0,0,1,0,.1,1.08,1.08,0,0,1-.4.85,1.38,1.38,0,0,1-.92.34,1.49,1.49,0,0,1-1-.32,1,1,0,0,1-.4-.74.92.92,0,0,1,.42-.79,1.42,1.42,0,0,1,.85-.3,1.29,1.29,0,0,1,.76.23A5.07,5.07,0,0,1,60.1,42.82Z"/><path class="cls-1" d="M66.73,44.89q.4-.82.69-1.44c.19-.41.37-.78.55-1.13s.35-.69.53-1,.41-.72.68-1.15a4,4,0,0,1,.57-.75,1.09,1.09,0,0,1,.8-.37.74.74,0,0,1,.5.17.53.53,0,0,1,.2.42,1.14,1.14,0,0,1-.09.57l-.22.52-1,2.33c-.31.69-.63,1.37-1,2.06s-.62,1.37-.92,2.07-.56,1.4-.81,2.12a18,18,0,0,0-.61,2.18c0,.09,0,.18-.05.28a1.36,1.36,0,0,0,0,.29,1.88,1.88,0,0,0,.08.44.36.36,0,0,0,.39.29.74.74,0,0,0,.43-.21,4.17,4.17,0,0,0,.49-.52c.16-.2.33-.42.49-.64l.4-.57c.29-.45.57-.9.83-1.36l.78-1.36a.89.89,0,0,0,.19-.31c0-.12.16-.18.35-.18a.45.45,0,0,1,.31.12.31.31,0,0,1,.13.24,1.12,1.12,0,0,1,0,.31c0,.11-.07.2-.11.29-.27.53-.56,1.12-.86,1.77a17.43,17.43,0,0,1-1,1.82,7.1,7.1,0,0,1-1.14,1.44,1.88,1.88,0,0,1-1.35.58A2,2,0,0,1,66,54a2.1,2.1,0,0,1-.69-.52,3.47,3.47,0,0,1-.48-.72,6.32,6.32,0,0,1-.32-.82q-.36.28-.69.6c-.21.2-.44.39-.67.57a4,4,0,0,1-.71.42,1.91,1.91,0,0,1-.8.17A2.13,2.13,0,0,1,60,53,2.8,2.8,0,0,1,59.32,51a6.51,6.51,0,0,1,.42-2.24,7.47,7.47,0,0,1,1.15-2.09,6.33,6.33,0,0,1,1.76-1.54,4.26,4.26,0,0,1,2.24-.61A5.77,5.77,0,0,1,66.73,44.89ZM62,52.24h.06a.1.1,0,0,0,.07,0,.53.53,0,0,0,.23,0l.87-.54a6.78,6.78,0,0,0,.78-.61,3.39,3.39,0,0,0,.58-.73,2.6,2.6,0,0,0,.31-.94,5.88,5.88,0,0,1,.22-.74c.09-.26.2-.54.32-.83s.25-.56.38-.84.24-.54.35-.8a.88.88,0,0,1,0-.15,1.1,1.1,0,0,0,0-.18.42.42,0,0,0-.06-.21c0-.07-.16-.11-.35-.11a1.35,1.35,0,0,0-.75.25c-.24.17-.46.32-.65.48a8.2,8.2,0,0,0-1.9,2.42,6.14,6.14,0,0,0-.76,2.91A.87.87,0,0,0,62,52.24Z"/><path class="cls-1" d="M79.46,50.58l.45-.71.57-.88c.2-.3.39-.59.57-.88s.33-.53.45-.73.15-.1.25,0a1.33,1.33,0,0,1,.19.3,1.73,1.73,0,0,1,0,.31c-.26.57-.57,1.18-.92,1.85a13.76,13.76,0,0,1-1.18,1.84,7.34,7.34,0,0,1-1.42,1.42,2.71,2.71,0,0,1-1.66.58,1.27,1.27,0,0,1-.94-.38,10,10,0,0,1-.89-1c-.45.36-.94.7-1.45,1a2.84,2.84,0,0,1-1.53.49,1.43,1.43,0,0,1-.74-.22,2.35,2.35,0,0,1-.68-.59,3,3,0,0,1-.51-.91,3.27,3.27,0,0,1-.19-1.15,5.85,5.85,0,0,1,.45-2.2,8.08,8.08,0,0,1,1.19-2,6.42,6.42,0,0,1,1.71-1.5,3.82,3.82,0,0,1,2-.58,4.28,4.28,0,0,1,1.89.44l.64-.53a1.08,1.08,0,0,1,.71-.3,1.22,1.22,0,0,1,.35.06,3.39,3.39,0,0,1,.39.18,1.14,1.14,0,0,1,.32.3.63.63,0,0,1,.13.39,1,1,0,0,1-.12.42,2.44,2.44,0,0,1-.24.43c-.19.43-.38.84-.56,1.22s-.35.78-.52,1.17-.31.78-.44,1.18-.24.84-.35,1.3a3.55,3.55,0,0,0-.16.62,2.64,2.64,0,0,0,0,.44c0,.33.1.49.31.49a.85.85,0,0,0,.45-.17,3.46,3.46,0,0,0,.56-.44,6.1,6.1,0,0,0,.54-.59C79.16,51,79.32,50.79,79.46,50.58Zm-2.93-4.7a.81.81,0,0,0-.41-.11,2.13,2.13,0,0,0-1.18.56,9.24,9.24,0,0,0-1.4,1.4,9.58,9.58,0,0,0-1.17,1.82,4.19,4.19,0,0,0-.5,1.86.89.89,0,0,0,.75,1,7.28,7.28,0,0,0,1.25-.79,6.92,6.92,0,0,0,1-1,8.09,8.09,0,0,1,.27-1.15q.19-.63.45-1.26c.18-.43.35-.84.52-1.23S76.41,46.19,76.53,45.88Z"/><path class="cls-1" d="M87.35,44.89c.27-.55.51-1,.7-1.44s.37-.78.54-1.13.35-.69.53-1,.41-.72.69-1.15a3.56,3.56,0,0,1,.56-.75,1.11,1.11,0,0,1,.81-.37.72.72,0,0,1,.49.17.51.51,0,0,1,.21.42,1.42,1.42,0,0,1-.09.57c-.08.19-.16.36-.22.52l-1,2.33c-.31.69-.63,1.37-.94,2.06s-.63,1.37-.92,2.07-.57,1.4-.82,2.12a18,18,0,0,0-.61,2.18c0,.09,0,.18,0,.28a1.37,1.37,0,0,0,0,.29,1.77,1.77,0,0,0,.07.44.38.38,0,0,0,.39.29.74.74,0,0,0,.43-.21,3.54,3.54,0,0,0,.49-.52c.16-.2.33-.42.49-.64s.3-.42.4-.57c.3-.45.57-.9.83-1.36l.78-1.36a.89.89,0,0,0,.19-.31c0-.12.16-.18.35-.18a.45.45,0,0,1,.31.12A.31.31,0,0,1,92,48a1.12,1.12,0,0,1,0,.31l-.1.29q-.42.8-.87,1.77a17.39,17.39,0,0,1-1,1.82,7.87,7.87,0,0,1-1.14,1.44,1.92,1.92,0,0,1-1.36.58,2.07,2.07,0,0,1-.92-.19,2.1,2.1,0,0,1-.69-.52,3.43,3.43,0,0,1-.47-.72,6.38,6.38,0,0,1-.33-.82,7.87,7.87,0,0,0-.68.6c-.22.2-.44.39-.68.57a4,4,0,0,1-.71.42,1.91,1.91,0,0,1-.8.17A2.11,2.11,0,0,1,80.61,53,2.8,2.8,0,0,1,80,51a6.49,6.49,0,0,1,.41-2.24,7.74,7.74,0,0,1,1.15-2.09,6.33,6.33,0,0,1,1.76-1.54,4.26,4.26,0,0,1,2.24-.61A5.72,5.72,0,0,1,87.35,44.89Zm-4.74,7.35h.07a.08.08,0,0,0,.06,0,.53.53,0,0,0,.23,0q.45-.26.87-.54a6,6,0,0,0,.78-.61,3.39,3.39,0,0,0,.58-.73,2.6,2.6,0,0,0,.31-.94c0-.22.13-.47.22-.74s.2-.54.32-.83.25-.56.38-.84.24-.54.35-.8l0-.15a.57.57,0,0,0,0-.18.44.44,0,0,0-.07-.21c0-.07-.16-.11-.35-.11a1.35,1.35,0,0,0-.75.25c-.24.17-.46.32-.65.48a8.37,8.37,0,0,0-1.9,2.42,6.14,6.14,0,0,0-.76,2.91A.91.91,0,0,0,82.61,52.24Z"/><path class="cls-1" d="M35.78,66.57,38.1,69l-.79.75-1.37-1.46-2,1.87L35,71.32l-.79.75-1.06-1.13-2.28,2.15,1.41,1.49-.79.75-2.36-2.51Z"/><path class="cls-1" d="M34.23,75.32a3.92,3.92,0,0,1,.36-.42,5,5,0,0,1,.4-.37l.86.65-.26.35a4.25,4.25,0,0,0-.36.55,1.43,1.43,0,0,0-.16.48.68.68,0,0,0,0,.4,1,1,0,0,0,.28.33.81.81,0,0,0,.62.19.87.87,0,0,0,.54-.38,1.85,1.85,0,0,0,.21-.34,1.73,1.73,0,0,0,.14-.34A2.49,2.49,0,0,0,37,76a4.46,4.46,0,0,0,0-.53l-.13-2.24A4.19,4.19,0,0,1,37,72.08a2.54,2.54,0,0,1,.47-1,2.23,2.23,0,0,1,.61-.58,1.83,1.83,0,0,1,.72-.28,1.74,1.74,0,0,1,.78.05,2.38,2.38,0,0,1,.81.41,2.52,2.52,0,0,1,.7.74,1.62,1.62,0,0,1,.15,1.45,2.8,2.8,0,0,1-.34.61,2.4,2.4,0,0,1-.36.41l-.41.37-.85-.64.26-.34a2.34,2.34,0,0,0,.49-1,.71.71,0,0,0-.31-.72.74.74,0,0,0-.59-.17.8.8,0,0,0-.5.35,2,2,0,0,0-.19.29,1.19,1.19,0,0,0-.1.28,1.45,1.45,0,0,0,0,.29c0,.1,0,.2,0,.31l.12,2.52a5.69,5.69,0,0,1-.11,1.29,2.86,2.86,0,0,1-.48,1,2.48,2.48,0,0,1-.65.61,1.75,1.75,0,0,1-.74.27,2,2,0,0,1-.8-.07,2.42,2.42,0,0,1-.81-.42,2.68,2.68,0,0,1-.73-.75,1.74,1.74,0,0,1-.26-.74,1.49,1.49,0,0,1,.1-.7A2.39,2.39,0,0,1,34.23,75.32Z"/><path class="cls-1" d="M43,72.58l1.24.61.51.27a3.07,3.07,0,0,1,.51.38,2.12,2.12,0,0,1,.42.51,1.59,1.59,0,0,1,.25.67,2.52,2.52,0,0,1,0,.86A4,4,0,0,1,45.49,77l-.14.28a5,5,0,0,1-.66,1.07A3.4,3.4,0,0,1,44,79a2.07,2.07,0,0,1-.69.3,2.4,2.4,0,0,1-.65,0,2.92,2.92,0,0,1-.6-.14,4.5,4.5,0,0,1-.53-.21l-.12-.06L40.2,81.39,39,80.79Zm-1,5.43a1.6,1.6,0,0,0,.61.18.86.86,0,0,0,.52-.13,1.57,1.57,0,0,0,.46-.44,5.5,5.5,0,0,0,.44-.76l.36-.74a3.32,3.32,0,0,0,.26-.66,1.07,1.07,0,0,0,0-.53.81.81,0,0,0-.24-.43,2,2,0,0,0-.54-.37l-.06,0L41.86,78Z"/><path class="cls-1" d="M47.63,74.72l1.46.38.54.17a3.53,3.53,0,0,1,.57.25,3.14,3.14,0,0,1,.51.39,1.87,1.87,0,0,1,.37.57,2.3,2.3,0,0,1,.17.79,3.9,3.9,0,0,1-.14,1l-.06.23a4,4,0,0,1-.72,1.56,1.82,1.82,0,0,1-1.09.69l.5,3.9-1.42-.37L48,80.73l-.5-.14-.86,3.31-1.32-.34Zm.33,5a2.11,2.11,0,0,0,.62.08A.94.94,0,0,0,49,79.6a1.27,1.27,0,0,0,.34-.43,3.06,3.06,0,0,0,.26-.73l.18-.7a3.11,3.11,0,0,0,.1-.6,1,1,0,0,0-.11-.47,1,1,0,0,0-.33-.34,2,2,0,0,0-.59-.23l-.2-.06-.93,3.59Z"/><path class="cls-1" d="M53,75.93l3.37.24-.07,1.09-2-.14-.19,2.72,1.54.11L55.58,81,54,80.93,53.81,84l2,.15-.08,1.09L52.35,85Z"/><path class="cls-1" d="M57.79,83.42a3.37,3.37,0,0,1,0-.54,3.74,3.74,0,0,1,0-.55l1.07-.11,0,.45a4.69,4.69,0,0,0,.11.64,1.63,1.63,0,0,0,.2.46.68.68,0,0,0,.3.26.79.79,0,0,0,.44.06.83.83,0,0,0,.58-.28.87.87,0,0,0,.14-.65,3.25,3.25,0,0,0-.07-.38,1.7,1.7,0,0,0-.14-.35,2.09,2.09,0,0,0-.23-.35,5.24,5.24,0,0,0-.35-.4L58.3,80.12a4.14,4.14,0,0,1-.69-.93,2.75,2.75,0,0,1-.32-1,2.32,2.32,0,0,1,.06-.84,1.86,1.86,0,0,1,.34-.69,1.78,1.78,0,0,1,.62-.49,2.33,2.33,0,0,1,.87-.24,2.75,2.75,0,0,1,1,.06,1.81,1.81,0,0,1,.68.39,1.55,1.55,0,0,1,.4.58,2.34,2.34,0,0,1,.17.68,3.32,3.32,0,0,1,0,.54c0,.17,0,.36-.05.56l-1.06.11-.05-.43A2.31,2.31,0,0,0,60,77.29a.71.71,0,0,0-.71-.32.76.76,0,0,0-.56.28.81.81,0,0,0-.13.59,1.59,1.59,0,0,0,.06.34,1.18,1.18,0,0,0,.12.28,1.67,1.67,0,0,0,.16.24l.2.23,1.8,1.78a5.55,5.55,0,0,1,.78,1A2.62,2.62,0,0,1,62,82.82a2.18,2.18,0,0,1-.06.89,1.75,1.75,0,0,1-.37.7,1.89,1.89,0,0,1-.63.48,2.49,2.49,0,0,1-.89.24,2.84,2.84,0,0,1-1-.06,1.75,1.75,0,0,1-.69-.37,1.63,1.63,0,0,1-.4-.58A2.47,2.47,0,0,1,57.79,83.42Z"/><path class="cls-1" d="M64.12,82.58c-.05-.19-.09-.36-.12-.53s0-.34,0-.54l1-.31.13.43a4.7,4.7,0,0,0,.22.61,2,2,0,0,0,.28.42.78.78,0,0,0,.35.2.85.85,0,0,0,.44,0,.83.83,0,0,0,.52-.37.89.89,0,0,0,0-.67,2.61,2.61,0,0,0-.14-.37,2,2,0,0,0-.2-.31,2.69,2.69,0,0,0-.29-.3c-.12-.1-.26-.21-.43-.33L64,79.24a4.29,4.29,0,0,1-.85-.78,2.75,2.75,0,0,1-.5-1,2.25,2.25,0,0,1-.1-.84,2,2,0,0,1,.2-.74,1.74,1.74,0,0,1,.52-.6,2.36,2.36,0,0,1,.81-.4,2.69,2.69,0,0,1,1-.12,1.63,1.63,0,0,1,.75.25,1.7,1.7,0,0,1,.5.5,2.56,2.56,0,0,1,.29.63,4,4,0,0,1,.11.54c0,.16,0,.35,0,.55l-1,.3-.12-.41a2.37,2.37,0,0,0-.52-1,.71.71,0,0,0-.76-.18.74.74,0,0,0-.5.37.85.85,0,0,0,0,.61,2.06,2.06,0,0,0,.13.33,2.13,2.13,0,0,0,.16.25,1.89,1.89,0,0,0,.2.2l.25.2,2.1,1.41a5.78,5.78,0,0,1,1,.86,2.63,2.63,0,0,1,.54,1,2.31,2.31,0,0,1,.11.88,1.84,1.84,0,0,1-.77,1.36,2.73,2.73,0,0,1-.82.4,2.9,2.9,0,0,1-1,.13,1.75,1.75,0,0,1-.75-.24,1.67,1.67,0,0,1-.5-.49A2.8,2.8,0,0,1,64.12,82.58Z"/><path class="cls-1" d="M67.26,73.85l1.25-.58,3.88,8.26-1.25.58Z"/><path class="cls-1" d="M69.39,72.92l1.18-.79,4.86,5.45,0,0L72.29,71l1.17-.79,3.7,8.51-1.31.88Z"/><path class="cls-1" d="M82,74.77a4.06,4.06,0,0,1-.37.32,2,2,0,0,1-.46.25,2,2,0,0,1-.57.11,1.83,1.83,0,0,1-.67-.09A3.2,3.2,0,0,1,79.1,75a5.61,5.61,0,0,1-.91-.76l-2.28-2.29a6.05,6.05,0,0,1-.75-.91,3.23,3.23,0,0,1-.37-.79,1.8,1.8,0,0,1-.08-.67,1.7,1.7,0,0,1,.13-.56,2,2,0,0,1,.26-.45c.11-.13.21-.25.31-.35a2.59,2.59,0,0,1,.34-.3,2.13,2.13,0,0,1,.44-.26,1.93,1.93,0,0,1,.55-.13,1.8,1.8,0,0,1,.67.08,3.13,3.13,0,0,1,.79.38,5.76,5.76,0,0,1,.92.77L81.4,71a5.38,5.38,0,0,1,.74.91,3.57,3.57,0,0,1,.38.8,2.09,2.09,0,0,1,.09.68,2.39,2.39,0,0,1-.12.57,2.25,2.25,0,0,1-.25.46A3.41,3.41,0,0,1,82,74.77ZM81.22,74a.87.87,0,0,0,.2-.3.52.52,0,0,0,0-.35,1.3,1.3,0,0,0-.21-.43,4.62,4.62,0,0,0-.46-.53l-2.93-3a4.14,4.14,0,0,0-.55-.48,1.44,1.44,0,0,0-.44-.23.63.63,0,0,0-.36,0,.83.83,0,0,0-.3.2.85.85,0,0,0-.21.31.55.55,0,0,0,0,.36,1.39,1.39,0,0,0,.22.44,5.19,5.19,0,0,0,.48.56l2.93,2.94a3.45,3.45,0,0,0,.54.47,1.18,1.18,0,0,0,.42.21.52.52,0,0,0,.35,0A1,1,0,0,0,81.22,74Z"/></g></g></svg>