<svg xmlns="http://www.w3.org/2000/svg" viewBox="0 0 511.01 511.01"><defs><style>.cls-1{opacity:0.42;}.cls-2{fill:#e1e4e8;}</style></defs><g id="Capa_2" data-name="Capa 2"><g id="Capa_1-2" data-name="Capa 1"><g id="qMIV7H" class="cls-1"><path class="cls-2" d="M0,289.44H25.47V204.66H178.78v-6.21q0-84.57,0-169.13C178.78,9.61,188.44,0,208.23,0H473.66c19.13,0,28.78,9.65,28.79,28.89q0,90.3,0,180.61c0,19.42-9.69,29-29.22,29H385c1.62,11.71,3.07,22.87,4.73,34,1.29,8.64,1.4,8.63,10.15,8.63H417V297.8H264.35V281.31h26c2-14.33,4-28.24,6.07-42.8h-5.58c-27.94,0-55.88-.09-83.82,0-11.53,0-20.21-4.18-25.64-14.73-.68-1.31-3.4-2.22-5.18-2.22-31.43-.14-62.87-.1-94.3-.1H43.08v67.65H212.7V255.92h17.14v33.47H255.5v90.44c0,17.33-6.65,25.43-23.74,28.95a14.49,14.49,0,0,0-1.88.78v5.7q0,44.89,0,89.8c0,2-.21,4-.32,5.95H26c-.11-2-.32-4-.32-5.94q0-45.06,0-90.14v-5.66c-3.19-.68-5.65-1-8-1.74C7.89,404.65,3,397.33,0,388.25ZM485.38,187.16v-5.81q0-76.09,0-152.18C485.38,19,483.31,17,473.05,17h-265c-1.33,0-2.66-.06-4,0-4.84.38-7.71,3-8.17,7.78-.28,2.91-.05,5.86-.05,9.39H468v17H196.09V187.16ZM238.48,307H17v71.74c0,11.24,1.85,13.11,13,13.11H225.54c1.5,0,3,.06,4.49-.07,5.46-.47,8.38-3.17,8.4-8.57C238.54,357.89,238.48,332.62,238.48,307ZM42.89,493.7H212.51V409.31H42.89ZM485.38,204.9H195.8v4.85c0,9.28,2.47,11.75,11.89,11.75H474c8.93,0,11.37-2.39,11.43-11.08C485.39,208.63,485.38,206.84,485.38,204.9ZM367.13,238.79H313.36c-2,14.12-3.88,28-5.83,42h65.41C371,266.73,369.09,253,367.13,238.79Z"/><path class="cls-2" d="M335.35,511c-7.87-2.88-14.51-7.15-18-15.27-.37-.86-2-1.53-3.07-1.65-2.3-.25-4.65-.06-7-.09-15.55-.2-25.95-10.38-26.16-26-.19-14.3-.05-28.61-.05-42.91q0-27.94,0-55.88c0-18.85,9.72-28.53,28.59-28.64h4.86c.85-3.47,1.31-6.59,2.39-9.49,4-10.75,12.93-15.88,27.17-15.89,15.75,0,24.57,4.75,28.74,15.8,1.1,2.91,1.55,6.05,2.42,9.58h5.82q50.4,0,100.79,0c19.33,0,29.1,9.81,29.1,29.18q0,48.15,0,96.29c0,17.69-10.19,27.92-27.81,27.93q-52.63,0-105.28-.06c-3.37,0-5.29.73-6.81,4.08-3.23,7.13-9.79,10.47-16.79,13Zm39.7-34h4.75q51.36,0,102.72,0c9,0,11.47-2.51,11.48-11.61q0-47.86,0-95.73c0-9.74-2.27-12-12.1-12H380.17c-1.61,0-3.23.15-5.12.25Zm-42.82-63.8v66.3c0,13.35,1.33,14.65,14.92,14.51,7.81-.08,10.46-2.64,10.46-10.52q.06-70.29,0-140.58c0-8.26-2.46-10.62-10.71-10.67h-4c-8.26.05-10.68,2.42-10.69,10.67Q332.2,378.05,332.23,413.2Zm-17.32-55c-13.57-2-16.74.62-16.74,13.59v68.87c0,9.15-.09,18.3.05,27.44.09,5.77,2.88,8.56,8.55,8.87,2.61.14,5.24,0,8.14,0Z"/><path class="cls-2" d="M25.62,93.72q0-32.67,0-65.33C25.66,9.84,35.45,0,53.87,0q35.89,0,71.81,0c17.37,0,27.63,10.13,27.66,27.57q.12,66.07,0,132.15c0,17.4-10.32,27.67-27.6,27.71q-36.4.09-72.81,0c-17.07-.05-27.23-10.25-27.29-27.39C25.56,137.94,25.62,115.83,25.62,93.72Zm110,42.3V51.29H43.09V136ZM136,33.75c.1-1.64.26-3.1.28-4.57.08-9.82-2.22-12.16-11.91-12.17q-35.92,0-71.85,0c-7,0-9.69,2.74-9.85,9.6,0,2.28,0,4.57,0,7.12Zm.29,120H43.19c-2,13.66.53,16.72,13.47,16.72q34.16,0,68.3,0c8.81,0,11.27-2.51,11.33-11.29C136.31,157.49,136.3,155.86,136.3,153.71Z"/><path class="cls-2" d="M34.39,358H50.64v16.46H34.39Z"/><path class="cls-2" d="M68.25,374.26V358.09H84.73v16.17Z"/><path class="cls-2" d="M195.55,426.27v16.35H60.14V426.27Z"/><path class="cls-2" d="M59.93,476.69v-16.4H195.41v16.4Z"/><path class="cls-2" d="M392.14,375h16.39v16.38H392.14Z"/><path class="cls-2" d="M442.8,375.14v16.25H426.24V375.14Z"/><path class="cls-2" d="M476.85,375.07v16.26H460.18V375.07Z"/><path class="cls-2" d="M460.41,409.2h16.33v16.39H460.41Z"/><path class="cls-2" d="M426.24,459.58V443.36h16.4v16.22Z"/><path class="cls-2" d="M476.73,459.77H460.32V443.26h16.41Z"/><path class="cls-2" d="M408.6,409.22v16.35H392.26V409.22Z"/><path class="cls-2" d="M426.29,409.15H442.6v16.32H426.29Z"/><path class="cls-2" d="M392.15,443.2h16.38v16.53H392.15Z"/></g></g></g></svg>