<svg xmlns="http://www.w3.org/2000/svg" viewBox="0 0 84.89 95.45"><defs><style>.cls-1{fill:#fff;}</style></defs><g id="Capa_2" data-name="Capa 2"><g id="Capa_1-2" data-name="Capa 1"><path class="cls-1" d="M62.34,73.59c.3-1.37.66-1.67,1.87-1.67H68c0-.42,0-.8,0-1.17a1.38,1.38,0,0,1,1.51-1.5q5.08,0,10.16,0a1.4,1.4,0,0,1,1.58,1.34c0,.83-.61,1.4-1.62,1.4-2.58,0-5.16,0-7.74,0h-1V92.7h1.49c2.47,0,4.94,0,7.41,0,1.16,0,1.89,1.07,1.31,2a1.77,1.77,0,0,1-1.26.74c-3.44.06-6.88,0-10.32,0A1.37,1.37,0,0,1,68,93.91c0-1,0-1.93,0-3H64.45c-1.61,0-1.94-.32-2-1.91,0-.11,0-.21,0-.14-2.92-.91-5.79-1.67-8.56-2.68A43.16,43.16,0,0,1,35.55,73.54,59.4,59.4,0,0,0,21.17,61.15c-2.39-1.45-2.27-4.23.13-5.66a.36.36,0,0,0,.21-.28h-1c-3.91,0-7.82,0-11.74,0a3.65,3.65,0,0,1-2.69-1.08,12.25,12.25,0,0,1-2.85-4.53c-.59,0-1.2,0-1.8,0A1.37,1.37,0,0,1,0,48.23a1.36,1.36,0,0,1,1.44-1.4c1.39,0,2.78,0,4.17,0H6.9C7.65,35.26,12.58,26,22,19.22A34.29,34.29,0,0,1,45.4,12.83,35.53,35.53,0,0,1,78,46.82h4.72a5.41,5.41,0,0,1,1.07,0,1.31,1.31,0,0,1,1.11,1.37,1.37,1.37,0,0,1-1.22,1.36h-.09c-1.57-.36-2.36.4-2.76,1.84a5.74,5.74,0,0,1-.7,1.22,4.76,4.76,0,0,1-4.69,2.6c-4.66-.18-9.32,0-14,0h-.82l0,.12.58.31a3.37,3.37,0,0,1,.94,5.42,15.22,15.22,0,0,1-2.05,1.69,2.78,2.78,0,0,0-1.2,2.75,18.43,18.43,0,0,0,2.8,7.32A6.93,6.93,0,0,0,62.34,73.59Zm-56.12-24,1,1.63a2.51,2.51,0,0,0,2.41,1.22c15.32,0,30.64,0,46,0q10.2,0,20.39,0a1.39,1.39,0,0,0,1-.28c.6-.74,1.1-1.56,1.77-2.53H72.46a2.59,2.59,0,0,1-.74,0,1.38,1.38,0,0,1,.3-2.72c1-.05,2,0,3.21,0-1-11.78-6.14-21-16.31-26.81-11.84-6.77-23.81-6.26-35.11,1.37C15,27.38,10.47,36.08,9.69,46.82H50.22c1.52,0,2.21.45,2.2,1.42s-.68,1.37-2.23,1.37h-44ZM62.43,86c0-3.18,0-6,0-8.89a.82.82,0,0,0-.43-.58,5.71,5.71,0,0,1-3.1-2.89,48.34,48.34,0,0,1-2.63-6.89,5.53,5.53,0,0,1,2.53-6.5,3.72,3.72,0,0,0,.85-.66h0A1,1,0,0,0,59.18,58L59,57.92a1.06,1.06,0,0,0-.57.07,6.44,6.44,0,0,0-4.71,3.84c-.38,1-.71,2-1.07,3C52.1,66.21,51.67,67.67,51,69a4.61,4.61,0,0,1-5.64,2.35,8.26,8.26,0,0,1-1.89-.86q-2.14-1.41-4.22-3c-2.22-1.66-4.33-3.48-6.64-5s-5-2.92-7.49-4.3a4.94,4.94,0,0,0-1.92-.43c-.29,0-.61.28-.92.43.19.24.33.57.58.72a61,61,0,0,1,14.9,12.92A40.67,40.67,0,0,0,55.05,83.67C57.41,84.53,59.84,85.19,62.43,86Zm-37-30.76c1.45.72,2.81,1.34,4.11,2.06a77.76,77.76,0,0,1,10.78,7.5,42.25,42.25,0,0,0,4.8,3.42c2.17,1.3,3,1,3.87-1.4.64-1.74,1.2-3.51,1.81-5.26a8.9,8.9,0,0,1,4.78-5.48c.61-.28,1.24-.52,2-.84ZM65.24,74.75V88.07h2.7V74.75Z"/><path class="cls-1" d="M42.37,0a36.07,36.07,0,0,1,4.06,1,2.6,2.6,0,0,1,1.85,3.13,11.1,11.1,0,0,1-2.46,6c-2,2.45-4.68,2.47-6.72,0a11.14,11.14,0,0,1-2.53-6.39A2.44,2.44,0,0,1,38.2,1.11,41.38,41.38,0,0,1,42.37,0Zm.05,2.9c-.84.15-1.69.26-2.52.47-.22.06-.54.46-.51.66a8.11,8.11,0,0,0,2,4.54c.73.8,1.3.79,2,0a8.54,8.54,0,0,0,2-4.37.66.66,0,0,0-.61-.88C44.08,3.17,43.26,3,42.42,2.9Z"/><path class="cls-1" d="M77.34,88.74a1.71,1.71,0,0,1-1.76,1.71,1.75,1.75,0,1,1,.08-3.5A1.73,1.73,0,0,1,77.34,88.74Z"/><path class="cls-1" d="M15.64,42.1a29.91,29.91,0,0,1,4.55-12.77,26.85,26.85,0,0,1,11.73-9.9,1.41,1.41,0,0,1,1.87.34,1.23,1.23,0,0,1,0,1.61,1.84,1.84,0,0,1-.71.55c-8.6,4-13.25,10.88-14.64,20.13a3.86,3.86,0,0,1-.09.49,1.39,1.39,0,0,1-1.52,1.22C16.09,43.68,15.61,43.08,15.64,42.1Z"/></g></g></svg>