<svg xmlns="http://www.w3.org/2000/svg" viewBox="0 0 350.38 62.3"><defs><style>.cls-1{fill-rule:evenodd;}.cls-2{fill:#707a80;}.cls-3{fill:none;stroke:#000;stroke-miterlimit:10;stroke-width:1.22px;opacity:0.2;}</style></defs><g id="Capa_2" data-name="Capa 2"><g id="Capa_1-2" data-name="Capa 1"><path d="M125.12,12.88A16.73,16.73,0,0,0,120.65,17a9.59,9.59,0,0,0-2,5.67c0,1.43.92,3.7,2.7,6.79a32.53,32.53,0,0,1,2.17,4.28,10.12,10.12,0,0,1,.15,5.18,12.1,12.1,0,0,1-2.55,4.44h-6.28c2.82-2.37,4.25-4.8,4.25-7.28,0-1.67-1.22-3-3.63-7.57a12.67,12.67,0,0,1-1.7-5.84,12.93,12.93,0,0,1,4.64-9.83Z"/><path d="M21.47,43.4H14c-4.52,0-6.8-1.71-6.8-5.11V37.05H3L0,33.92H7.19v-21H21.47v3.31h-9.3V33.92h9.3v3.13h-9.3v1.83q0,1.2,1.83,1.2h7.47Z"/><path d="M57.5,25.2q0,8.27-11.4,12.43V43.4h-5V11.52a18.31,18.31,0,0,1,4.25,1.08q12.18,4,12.18,12.6m-5,.38a8.68,8.68,0,0,0-3.19-6.5,17.83,17.83,0,0,0-3.18-2.16V33.77a17.72,17.72,0,0,0,3.18-2.06,8,8,0,0,0,3.19-6.13"/><path d="M79.45,43.4H74.52V38.61c0-.63-.1-1-.32-1.2a3.51,3.51,0,0,0-1.75-.36H68.19V43.4h-5V37.05H59L56,33.92h7.2V11.52A18.28,18.28,0,0,1,67.4,12.6q12,4,12,12.6,0,5.07-5.07,8.72a5.77,5.77,0,0,1,3.81,1,4.64,4.64,0,0,1,1.26,3.66Zm-5-17.82a8.84,8.84,0,0,0-3.12-6.46,16.82,16.82,0,0,0-3.19-2.2v17a18.71,18.71,0,0,0,3.15-2,8.28,8.28,0,0,0,3.16-6.32"/><path d="M97.62,43.4H90.14c-4.52,0-6.79-1.71-6.79-5.11V12.88H97.62v3.31H88.31V33.92h9.31v3.13H88.31v1.83q0,1.2,1.83,1.2h7.48Z"/><path d="M111.82,12.88A16.73,16.73,0,0,0,107.35,17a9.59,9.59,0,0,0-2,5.67c0,1.43.92,3.7,2.7,6.79a32.53,32.53,0,0,1,2.17,4.28,10.12,10.12,0,0,1,.15,5.18,12.1,12.1,0,0,1-2.55,4.44h-6.29c2.83-2.37,4.26-4.8,4.26-7.28,0-1.67-1.22-3-3.63-7.57a12.67,12.67,0,0,1-1.7-5.84,12.89,12.89,0,0,1,4.64-9.83Z"/><path d="M37,12.88A16.43,16.43,0,0,0,32.48,17a9.59,9.59,0,0,0-2,5.67c0,1.43.91,3.7,2.7,6.79a35.24,35.24,0,0,1,2.17,4.28A10.1,10.1,0,0,1,35.47,39a12,12,0,0,1-2.55,4.44H26.64c2.82-2.37,4.25-4.8,4.25-7.28,0-1.67-1.21-3-3.62-7.57a12.7,12.7,0,0,1-1.71-5.84,12.93,12.93,0,0,1,4.64-9.83Z"/><rect x="130.96" y="12.88" width="5.03" height="30.52"/><polygon points="160.56 12.82 151.24 45.51 141.88 12.82 147.06 12.82 151.25 29.33 155.56 12.82 160.56 12.82"/><path class="cls-1" d="M174,30.49c2,4.06,5.67,11.54,9.59,10.43a.26.26,0,0,1,.26.44c-10.72,11-23.7-5.73-21.33-17.58a2.55,2.55,0,0,1,1.75-2c1.88-.53,5.43.11,9.73,8.71"/><path class="cls-1" d="M175.35,27.81c-2.07-4.13-5.81-11.83-9.82-10.36a.2.2,0,0,1-.2-.33c10.73-11.3,23.82,5.42,21.51,17.33A2.59,2.59,0,0,1,185,36.54c-1.9.49-5.41-.24-9.65-8.73"/><path class="cls-2" d="M223,17.07V29.81h11.43v2.67H223V43.56h15.29v2.67H220.22V14.4h18.07v2.67Z"/><path class="cls-2" d="M262.31,14.46,251.63,46.23h-2.85L238.1,14.46l2.9-.23,9.21,27.4,9.2-27.34Z"/><path class="cls-2" d="M267.29,17.07V29.81h11.43v2.67H267.29V43.56h15.29v2.67H264.51V14.4h18.07v2.67Z"/><path class="cls-2" d="M309.39,14.52V46.23h-2.67l-17.22-27v27h-2.85V14.57l2.9-.17,17,26.83V14.52Z"/><path class="cls-2" d="M330.62,17.13h-8.18v29.1H319.6V17.13h-8.19V14.4h19.21Z"/><path class="cls-2" d="M331.06,38.44l2.67-.73a6.73,6.73,0,0,0,7,5.91c4.43,0,6.71-2.56,6.71-5.8,0-8-15.92-5.68-15.92-15.69,0-4.55,4.15-8,9.38-8,5.06,0,8.92,3.35,9.49,7.61l-2.61.74A6.57,6.57,0,0,0,341,16.9c-4.14,0-6.48,2.85-6.42,5.29.11,7.67,15.8,5.34,15.8,15.74,0,4.44-3.07,8.59-9.6,8.59C334.87,46.52,331.4,42.25,331.06,38.44Z"/><line class="cls-3" x1="205.06" x2="205.06" y2="62.3"/></g></g></svg>