<svg xmlns="http://www.w3.org/2000/svg" viewBox="0 0 580.38 156.55"><defs><style>.cls-1{fill-rule:evenodd;}.cls-2{font-size:68.61px;fill:#707a80;font-family:Affogato-Regular, Affogato;letter-spacing:-0.08em;}.cls-3,.cls-4{fill:none;}.cls-3{stroke:#000;stroke-miterlimit:10;stroke-width:1.68px;opacity:0.2;}</style></defs><g id="Capa_2" data-name="Capa 2"><g id="Capa_1-2" data-name="Capa 1"><path d="M228.44,53.05a22.77,22.77,0,0,0-6.13,5.71,13.17,13.17,0,0,0-2.77,7.78c0,2,1.26,5.07,3.71,9.31a46.22,46.22,0,0,1,3,5.88,13.79,13.79,0,0,1,.2,7.09,16.46,16.46,0,0,1-3.5,6.09H214.3c3.88-3.25,5.84-6.59,5.84-10,0-2.28-1.67-4.13-5-10.37a17.47,17.47,0,0,1-2.34-8q0-7.7,6.37-13.49Z"/><path d="M86.28,94.91H76c-6.2,0-9.32-2.34-9.32-7v-1.7H60.89l-4.06-4.3H66.7V53.05H86.28v4.54H73.53V81.91H86.28v4.3H73.53v2.51c0,1.1.83,1.64,2.51,1.64H86.28Z"/><path d="M135.7,70q0,11.33-15.65,17v7.91h-6.89V51.19A25.22,25.22,0,0,1,119,52.66q16.7,5.52,16.71,17.3m-6.9.51c0-3.27-1.46-6.23-4.38-8.92a24.73,24.73,0,0,0-4.37-2.95V81.71a23.59,23.59,0,0,0,4.37-2.84q4.38-3.8,4.38-8.4"/><path d="M165.8,94.91H159V88.34q0-1.29-.45-1.65a4.75,4.75,0,0,0-2.39-.48h-5.85v8.7h-6.8v-8.7h-5.83l-4-4.3h9.87V51.19a25.08,25.08,0,0,1,5.72,1.47Q165.8,58.17,165.8,70q0,6.93-7,12c2.41,0,4.15.48,5.24,1.42s1.72,2.67,1.72,5ZM159,70.47c0-3.18-1.42-6.15-4.28-8.86a23.06,23.06,0,0,0-4.38-3V81.91a24.72,24.72,0,0,0,4.33-2.77q4.32-3.8,4.33-8.67"/><path d="M190.72,94.91H180.46q-9.3,0-9.31-7V53.05h19.57v4.54H178V81.91h12.77v4.3H178v2.51c0,1.1.84,1.64,2.51,1.64h10.26Z"/><path d="M210.2,53.05a22.77,22.77,0,0,0-6.13,5.71,13.17,13.17,0,0,0-2.77,7.78c0,2,1.25,5.07,3.71,9.31a46.22,46.22,0,0,1,3,5.88,13.9,13.9,0,0,1,.2,7.09,16.46,16.46,0,0,1-3.5,6.09h-8.62c3.88-3.25,5.83-6.59,5.83-10,0-2.28-1.66-4.13-5-10.37a17.47,17.47,0,0,1-2.34-8q0-7.7,6.37-13.49Z"/><path d="M107.5,53.05a23.07,23.07,0,0,0-6.13,5.71,13.22,13.22,0,0,0-2.76,7.78c0,2,1.25,5.07,3.7,9.31a45.19,45.19,0,0,1,3,5.88,14,14,0,0,1,.2,7.09,16.6,16.6,0,0,1-3.5,6.09H93.37c3.87-3.25,5.83-6.59,5.83-10,0-2.28-1.67-4.13-5-10.37a17.47,17.47,0,0,1-2.34-8q0-7.7,6.37-13.49Z"/><rect x="236.44" y="53.05" width="6.9" height="41.85"/><polygon points="277.05 52.97 264.26 97.8 251.43 52.97 258.53 52.97 264.27 75.62 270.19 52.97 277.05 52.97"/><path class="cls-1" d="M295.44,77.21c2.78,5.56,7.77,15.83,13.14,14.31a.36.36,0,0,1,.37.6c-14.7,15-32.51-7.86-29.25-24.12a3.47,3.47,0,0,1,2.4-2.74c2.58-.72,7.44.15,13.34,11.95"/><path class="cls-1" d="M297.32,73.53c-2.83-5.67-8-16.23-13.46-14.2a.28.28,0,0,1-.28-.46c14.72-15.5,32.68,7.44,29.51,23.77a3.58,3.58,0,0,1-2.53,2.87c-2.6.67-7.42-.34-13.24-12"/><text class="cls-2" transform="translate(351.69 98.8)">EVENTS</text><line class="cls-3" x1="338.07" y1="35.39" x2="338.07" y2="120.83"/><rect class="cls-4" width="580.38" height="156.55"/></g></g></svg>