<svg xmlns="http://www.w3.org/2000/svg" viewBox="0 0 574.88 126.85"><defs><style>.cls-1,.cls-5{font-size:15.69px;}.cls-1,.cls-10,.cls-5,.cls-6,.cls-7,.cls-8,.cls-9{fill:#707a80;}.cls-1{font-family:BebasNeueBook, Bebas Neue;}.cls-2{letter-spacing:-0.1em;}.cls-3{letter-spacing:-0.04em;}.cls-4{letter-spacing:-0.02em;}.cls-5{font-family:BebasNeueBold, Bebas Neue;}.cls-14,.cls-6{stroke:#fff;}.cls-14,.cls-6,.cls-8{stroke-miterlimit:10;}.cls-6{stroke-width:0.22px;}.cls-8{stroke:#707a80;stroke-width:0.37px;}.cls-9{font-size:5.65px;font-family:FjallaOne-Regular, Fjalla One;}.cls-10{font-size:13.37px;font-family:BalletHarmony, Ballet Harmony;}.cls-11{letter-spacing:-0.01em;}.cls-12{letter-spacing:0em;}.cls-13,.cls-14{fill:#fff;}.cls-14{font-size:10.43px;stroke-width:0.44px;font-family:Akkurat;letter-spacing:0.02em;}.cls-15{letter-spacing:0em;}.cls-16{fill:none;}</style></defs><g id="Capa_2" data-name="Capa 2"><g id="Capa_1-2" data-name="Capa 1"><text class="cls-1" transform="translate(435.68 67.99)"><tspan class="cls-2">E</tspan><tspan class="cls-3" x="3.94" y="0">X</tspan><tspan class="cls-4" x="10.22" y="0">PE</tspan><tspan x="20.84" y="0">RI</tspan><tspan class="cls-3" x="28.88" y="0">E</tspan><tspan x="33.76" y="0">NC</tspan><tspan class="cls-4" x="45.76" y="0">I</tspan><tspan x="47.43" y="0">A</tspan></text><text class="cls-5" transform="translate(394.03 68.15)">20 AÑOS</text><path class="cls-6" d="M491.74,77.78H391.9a.83.83,0,1,1,0-1.66h99.84a2.68,2.68,0,0,0,2.68-2.68V52.3a2.68,2.68,0,0,0-2.68-2.67H391.9a.83.83,0,1,1,0-1.66h99.84a4.34,4.34,0,0,1,4.34,4.33V73.44A4.35,4.35,0,0,1,491.74,77.78Z"/><path class="cls-7" d="M377,67.41H375.8c-.32.76-.67,1.55-1,2.34-.72,1.69-1.44,3.37-2.15,5.06-.17.39-.35.77-.84.8s-.73-.32-.92-.71c-.33-.64-.68-1.28-1.05-2l-2.12.68c-.43.14-.86.24-1.2-.17s-.17-.77,0-1.16l3-7a1.89,1.89,0,0,0-.89-2.2c-.4-.17-.81-.32-1.2-.5a2,2,0,0,1-1.2-2.21c0-.33.07-.67.15-1a1.62,1.62,0,0,0-.47-1.44c-.45-.54-1-1.06-.94-1.84a2.69,2.69,0,0,1,.51-1.45,3,3,0,0,0,.77-3,1.82,1.82,0,0,1,1.22-2.22,3.18,3.18,0,0,0,2.32-2.28,1.8,1.8,0,0,1,2.29-1.28,3,3,0,0,0,3-.8,1.82,1.82,0,0,1,2.63,0,3,3,0,0,0,3,.82A1.86,1.86,0,0,1,383,47.2a3,3,0,0,0,2.09,2.12c1.28.43,1.66,1.27,1.35,2.86a2.16,2.16,0,0,0,.53,2,3.58,3.58,0,0,1,.78,1.36,1.71,1.71,0,0,1-.47,1.75,2.9,2.9,0,0,0-.79,3,1.91,1.91,0,0,1-1.16,2.21,2.87,2.87,0,0,1-.66.27,2,2,0,0,0-1.55,1.7,1.28,1.28,0,0,0,.09.72c1,2.34,2,4.67,3,7a1.45,1.45,0,0,1,.13,1,.75.75,0,0,1-1.06.46c-.66-.21-1.32-.41-2-.64a.4.4,0,0,0-.59.25A13.37,13.37,0,0,1,381.8,75c-.19.28-.56.6-.84.58a1.16,1.16,0,0,1-.78-.63C379.08,72.44,378,69.93,377,67.41Zm7.9-16c.12-.41-.24-.56-.59-.64a3.48,3.48,0,0,1-2.71-2.71s0-.08,0-.11a.56.56,0,0,0-.79-.45,3.53,3.53,0,0,1-3.61-.79c-.68-.68-.75-.61-1.52,0a6.4,6.4,0,0,0-.51.4,2.44,2.44,0,0,1-2.15.55,3.67,3.67,0,0,1-.75-.11c-.63-.23-.92.07-1.06.63a3.34,3.34,0,0,1-2.44,2.54c-.94.27-.92.35-.74,1.32,0,.06,0,.11,0,.17a2.75,2.75,0,0,1-.67,2.73.76.76,0,0,0-.11.14c-.78,1-.87.76,0,1.79a3,3,0,0,1,.8,2.81c0,.17-.06.35-.1.52-.1.51,0,.89.6,1a5,5,0,0,1,.49.2,2.69,2.69,0,0,1,2,2c.05.17.15.32.19.49.14.55.44.71,1,.56a3.19,3.19,0,0,1,3.42.8c.09.1.24.15.33.25a.55.55,0,0,0,.91,0,3.65,3.65,0,0,1,3.63-1.11c.83.22.91.16,1.17-.67A3.32,3.32,0,0,1,384,61.28c1-.31,1-.37.8-1.44a2.86,2.86,0,0,1,.42-2.51c1.08-1.33,1.06-1.35,0-2.73a2.15,2.15,0,0,1-.49-1.87C384.79,52.33,384.81,51.92,384.87,51.42Zm-14,14.76-2.3,5.39c.52-.16.89-.27,1.27-.4a.88.88,0,0,1,1.17.49c.19.38.39.74.65,1.22l2.72-6.39A1.29,1.29,0,0,0,373,66,15.32,15.32,0,0,1,370.9,66.18Zm11,0L380.19,66c-.65,0-1.35-.35-1.82.48l2.7,6.36c.26-.49.46-.85.65-1.22a.87.87,0,0,1,1.17-.49c.39.13.78.24,1.26.38Z"/><path class="cls-7" d="M379.14,61.26l-.85-.41c-.65-.32-1.3-.89-2-.89s-1.25.58-1.89.89c-.46.23-.9.66-1.46.24s-.28-.93-.21-1.42.23-1.16.29-1.75a1.06,1.06,0,0,0-.23-.71c-.51-.55-1.1-1-1.59-1.59a1.17,1.17,0,0,1-.3-.92,1.39,1.39,0,0,1,.83-.6,4.77,4.77,0,0,1,1.45-.22,1.56,1.56,0,0,0,1.68-1.21,5.19,5.19,0,0,1,.69-1.37,1.12,1.12,0,0,1,.76-.51,1.21,1.21,0,0,1,.81.52c.39.64.66,1.35,1,2a1,1,0,0,0,.6.43c.71.15,1.44.19,2.15.36a1.54,1.54,0,0,1,.87.57c.24.39-.05.74-.35,1-.51.49-1,1-1.53,1.47a.77.77,0,0,0-.26.84c.15.73.28,1.47.39,2.2A.87.87,0,0,1,379.14,61.26Zm-1-2.36a2.57,2.57,0,0,1,1.12-3.42,2.56,2.56,0,0,1-2.93-2.11,2.58,2.58,0,0,1-2.91,2.15A2.59,2.59,0,0,1,374.6,59,2.52,2.52,0,0,1,378.18,58.9Z"/><path class="cls-7" d="M298.79,36.54a23.92,23.92,0,0,0-22.37,15.54H278a22.43,22.43,0,0,1,41.64,0h1.55A23.93,23.93,0,0,0,298.79,36.54Z"/><path class="cls-7" d="M289.05,52.08h1a12.25,12.25,0,0,1,16.75,0h1a13,13,0,0,0-18.81,0Z"/><path class="cls-8" d="M327.6,53.57H269.31l3.39,7.48-3.39,7.48H327.6l-3.39-7.48Zm-1.47,13.92H270.78l2.93-6.44-2.93-6.43h55.35l-2.93,6.43Z"/><path class="cls-7" d="M278.23,61.05A1.27,1.27,0,1,1,277,59.79,1.27,1.27,0,0,1,278.23,61.05Z"/><path class="cls-7" d="M318.68,61.05a1.27,1.27,0,1,0,1.26-1.26A1.27,1.27,0,0,0,318.68,61.05Z"/><path class="cls-7" d="M307.86,70h-1a12.22,12.22,0,0,1-16.75,0h-1a12.95,12.95,0,0,0,18.81,0Z"/><path class="cls-7" d="M298.79,84.3A23.9,23.9,0,0,0,320.64,70h-1.58a22.44,22.44,0,0,1-40.55,0h-1.57A23.9,23.9,0,0,0,298.79,84.3Z"/><text class="cls-9" transform="matrix(0.66, -0.75, 0.75, 0.66, 287.48, 51.28)">G</text><text class="cls-9" transform="translate(289.27 49.25) rotate(-37.39)">A</text><text class="cls-9" transform="translate(291.23 47.72) rotate(-26.34)">R</text><text class="cls-9" transform="translate(293.66 46.51) rotate(-15.14)">A</text><text class="cls-9" transform="translate(296.04 45.82) rotate(-3.63)">N</text><text class="cls-9" transform="matrix(0.99, 0.13, -0.13, 0.99, 298.98, 45.65)">T</text><text class="cls-9" transform="translate(301.19 45.95) rotate(14.96)">Í</text><text class="cls-9" transform="matrix(0.92, 0.4, -0.4, 0.92, 302.56, 46.27)">A</text><text class="cls-9" transform="matrix(0.86, 0.52, -0.52, 0.86, 304.84, 47.3)"> </text><text class="cls-9" transform="matrix(0.77, 0.63, -0.63, 0.77, 305.81, 47.8)">D</text><text class="cls-9" transform="matrix(0.65, 0.76, -0.76, 0.65, 307.93, 49.56)">E</text><text class="cls-10" transform="translate(279.31 64.28)">C<tspan class="cls-11" x="10.36" y="0">a</tspan><tspan class="cls-12" x="15.47" y="0">lidad</tspan></text><text class="cls-9" transform="matrix(0.69, 0.72, -0.72, 0.69, 284.14, 73.94)">E</text><text class="cls-9" transform="translate(286.3 76.13) rotate(36.53)">S</text><text class="cls-9" transform="translate(289.12 78.13) rotate(25.81)">P</text><text class="cls-9" transform="translate(292.34 79.61) rotate(14.61)">R</text><text class="cls-9" transform="matrix(1, 0.07, -0.07, 1, 295.97, 80.44)">E</text><text class="cls-9" transform="translate(299.02 80.61) rotate(-5.71)">S</text><text class="cls-9" transform="translate(302.46 80.19) rotate(-16.39)">S</text><text class="cls-9" transform="matrix(0.91, -0.42, 0.42, 0.91, 305.65, 79.15)">I</text><text class="cls-9" transform="translate(307.7 78.18) rotate(-33.7)">V</text><text class="cls-9" transform="matrix(0.71, -0.7, 0.7, 0.71, 310.55, 76.2)">O</text><path class="cls-7" d="M234.57,64.37A12.6,12.6,0,0,1,222,77H85.9a12.6,12.6,0,0,1-12.6-12.6h0a12.6,12.6,0,0,1,12.6-12.6H222a12.6,12.6,0,0,1,12.6,12.6Z"/><polygon class="cls-13" points="225.31 61.8 226.03 63.26 227.64 63.49 226.48 64.63 226.75 66.24 225.31 65.48 223.87 66.24 224.15 64.63 222.98 63.49 224.59 63.26 225.31 61.8"/><polygon class="cls-13" points="85.86 61.8 86.58 63.26 88.19 63.49 87.03 64.63 87.3 66.24 85.86 65.48 84.42 66.24 84.7 64.63 83.53 63.49 85.14 63.26 85.86 61.8"/><text class="cls-14" transform="translate(91.16 67.84)">250+ EVEN<tspan class="cls-15" x="55.62" y="0">T</tspan><tspan x="61.18" y="0">OS EXI</tspan><tspan class="cls-15" x="94.07" y="0">T</tspan><tspan x="99.63" y="0">OSOS</tspan></text><rect class="cls-16" width="574.88" height="126.85"/></g></g></svg>