<svg xmlns="http://www.w3.org/2000/svg" viewBox="0 0 262.96 43.52"><defs><style>.cls-1,.cls-2{fill:#1a1818;}.cls-2{fill-rule:evenodd;}.cls-3{fill:none;stroke:#dadada;stroke-miterlimit:10;stroke-width:0.56px;}</style></defs><g id="Capa_2" data-name="Capa 2"><g id="Capa_1-2" data-name="Capa 1"><path class="cls-1" d="M185.87,19a6,6,0,0,0,2.94-5.55c0-1.5-.33-4.22-2.56-5.63-.85-.58-1.95-1-4.55-1h-4V32.72h5a10,10,0,0,0,4-.67c2.24-1.09,3.44-3.26,3.48-6.3,0-1.23-.32-5.27-4.29-6.78m-3.13,12.5H179V19.8h3.23a7.71,7.71,0,0,1,3.82.6,6,6,0,0,1,2.72,5.35c0,2.67-.93,4.41-2.67,5.18a7.94,7.94,0,0,1-3.39.54m2.67-13.55a4.93,4.93,0,0,1-2.81.62H179V8.08h2.71c2.44,0,3.16.35,3.74.74a5.35,5.35,0,0,1,2,4.46,5.21,5.21,0,0,1-2,4.64"/><rect class="cls-1" x="193.71" y="6.83" width="1.36" height="25.89"/><path class="cls-1" d="M206.16,18.82l-.09,0c-3.56-1-5.89-2-5.86-5.79,0-3.26,1.92-5.37,4.89-5.37,3.7,0,4.64,2.81,5,4.92l0,.13h1.25l0-.18c-.59-5.06-3.74-6.12-6.27-6.12a6.08,6.08,0,0,0-4.43,1.76,6.92,6.92,0,0,0-1.82,5.1c0,4.78,4,6,6,6.53l.19.06c2.39.7,5.65,1.66,5.65,6.16a5.59,5.59,0,0,1-5.75,5.93c-.19,0-4.68-.07-5.23-5.84v-.14h-1.25v.17a7.52,7.52,0,0,0,2.27,5.39,6.52,6.52,0,0,0,4.35,1.67c4,0,7-3.11,7-7.38,0-5.25-4.27-6.5-5.87-7"/><polygon class="cls-1" points="213.54 8.08 219.24 8.08 219.24 32.72 220.6 32.72 220.6 8.08 226.3 8.08 226.3 6.83 213.54 6.83 213.54 8.08"/><path class="cls-1" d="M240.61,19.59A8.7,8.7,0,0,0,242,14.42a7.55,7.55,0,0,0-3.08-6.49c-.87-.56-2-1.1-6-1.1h-4V32.72h1.36V8.08h2.91c1.68,0,3.77,0,5.09,1,2,1.49,2.32,4.09,2.32,5.51a6.63,6.63,0,0,1-1.68,5,6.2,6.2,0,0,1-4.72,1.62h-.89l5.87,11.58h1.53l-5.29-10.35a6.75,6.75,0,0,0,5.13-2.78"/><polygon class="cls-1" points="257.8 1.07 257.15 0 249.38 4.58 249.99 5.66 257.8 1.07"/><path class="cls-1" d="M253.57,6.38c-5.61,0-9.38,5.37-9.38,13.36v0a17.65,17.65,0,0,0,2.37,9.42,8.07,8.07,0,0,0,7,4c6.49,0,9.39-6.73,9.39-13.39a17.66,17.66,0,0,0-2.37-9.43,8.09,8.09,0,0,0-7-4m0,25.54c-4.88,0-8-4.76-8-12.11v0c0-7.38,3.15-12.15,8-12.15s8,4.77,8,12.15-3.15,12.14-8,12.14"/><path class="cls-1" d="M17.68,32H11.52q-5.59,0-5.6-4.2v-1H2.43L0,24.24H5.92V6.92H17.68V9.64H10v14.6h7.66v2.59H10v1.5c0,.66.5,1,1.51,1h6.16Z"/><path class="cls-1" d="M47.35,17.06q0,6.81-9.4,10.27v4.74h-4.1V5.8a14.63,14.63,0,0,1,3.5.89q10,3.32,10,10.37m-4.11.32A7.17,7.17,0,0,0,40.61,12,14.88,14.88,0,0,0,38,10.25V24.13a14.15,14.15,0,0,0,2.58-1.69,6.57,6.57,0,0,0,2.63-5.06Z"/><path class="cls-1" d="M65.41,32H61.3V28.1a1.49,1.49,0,0,0-.26-1,3,3,0,0,0-1.44-.28H56.15V32H52V26.83H48.56l-2.42-2.59h5.92V5.76a14.91,14.91,0,0,1,3.43.88Q65.44,10,65.41,17c0,2.79-1.39,5.18-4.17,7.19a4.75,4.75,0,0,1,3.14.85,3.85,3.85,0,0,1,1,3ZM61.3,17.38a7.3,7.3,0,0,0-2.58-5.33,13.77,13.77,0,0,0-2.61-1.8v14a14.92,14.92,0,0,0,2.58-1.66,6.77,6.77,0,0,0,2.65-5.2Z"/><path class="cls-1" d="M80.38,32H74.22c-3.73,0-5.6-1.4-5.59-4.2V6.92H80.38V9.64H72.71v14.6h7.67v2.59H72.71v1.5c0,.66.5,1,1.51,1h6.16Z"/><path class="cls-1" d="M92.07,6.92a13.67,13.67,0,0,0-3.68,3.43A7.87,7.87,0,0,0,86.73,15c0,1.18.75,3.08,2.22,5.6a25.93,25.93,0,0,1,1.78,3.53,8.17,8.17,0,0,1,.13,4.25A9.59,9.59,0,0,1,88.8,32H83.67c2.33-1.95,3.5-3.95,3.5-6,0-1.38-1-2.49-3-6.23A10.48,10.48,0,0,1,82.79,15a10.64,10.64,0,0,1,3.82-8.09Z"/><path class="cls-1" d="M30.42,6.92a13.82,13.82,0,0,0-3.68,3.43A7.87,7.87,0,0,0,25.08,15c0,1.18.75,3.08,2.22,5.6a24.83,24.83,0,0,1,1.78,3.53,8.17,8.17,0,0,1,.13,4.25A9.76,9.76,0,0,1,27.1,32H22c2.33-1.95,3.5-3.95,3.5-6,0-1.38-1-2.49-3-6.23A10.48,10.48,0,0,1,21.09,15a10.64,10.64,0,0,1,3.82-8.09Z"/><path class="cls-1" d="M103,6.92a13.82,13.82,0,0,0-3.68,3.43A8,8,0,0,0,97.67,15c0,1.18.76,3.08,2.23,5.6a27.19,27.19,0,0,1,1.79,3.53,8.38,8.38,0,0,1,.12,4.25,9.71,9.71,0,0,1-2,3.65H94.63c2.33-1.95,3.5-3.95,3.5-6,0-1.38-1-2.49-3-6.23A10.48,10.48,0,0,1,93.74,15a10.64,10.64,0,0,1,3.82-8.09Z"/><rect class="cls-1" x="107.86" y="6.92" width="4.11" height="25.12"/><polygon class="cls-1" points="132.2 6.87 124.52 33.79 116.82 6.87 121.08 6.87 124.53 20.46 128.08 6.87 132.2 6.87"/><path class="cls-2" d="M143.24,21.42c1.67,3.33,4.67,9.49,7.89,8.58a.21.21,0,0,1,.27.14.22.22,0,0,1-.05.22c-8.82,9-19.51-4.72-17.56-14.48a2.07,2.07,0,0,1,1.44-1.64c1.55-.42,4.48.1,8,7.18"/><path class="cls-2" d="M144.38,19.21c-1.71-3.4-4.79-9.74-8.08-8.52a.18.18,0,0,1-.23-.07.19.19,0,0,1,.05-.21c8.84-9.3,19.62,4.47,17.71,14.27a2.15,2.15,0,0,1-1.51,1.73c-1.57.4-4.48-.21-7.94-7.2"/><line class="cls-3" x1="164.8" x2="164.8" y2="43.52"/></g></g></svg>