<svg xmlns="http://www.w3.org/2000/svg" viewBox="0 0 676.37 126.85"><defs><style>.cls-1{fill:none;}.cls-2{fill:#fff;}</style></defs><g id="Capa_2" data-name="Capa 2"><g id="Capa_1-2" data-name="Capa 1"><rect class="cls-1" width="676.37" height="126.85"/><path class="cls-2" d="M545.53,58.83l-2.81,6.36-2.79-6.36h-6.36V73.62h6.06l3-6.88,3,6.88h1L543.35,66l3.11-7.12Zm-6.46,13.91h-4.53V66.57h4v-.89h-4v-6h4.76L542,66Z"/><path class="cls-2" d="M550.14,67.54c2.34,0,3.42-1.16,3.42-3.51v-1.6c0-2.16-.89-3.6-3.17-3.6h-3.06V73.62h1V67.54Zm-1.84-7.82h2.09c1.65,0,2.2,1,2.2,2.64v1.73c0,1.8-.74,2.56-2.45,2.56H548.3Z"/><polygon class="cls-2" points="560.47 59.72 560.47 58.83 554.64 58.83 554.64 73.62 560.47 73.62 560.47 72.74 555.61 72.74 555.61 66.57 559.65 66.57 559.65 65.68 555.61 65.68 555.61 59.72 560.47 59.72"/><path class="cls-2" d="M567.89,63.46V62.17c0-2.09-.91-3.34-3.17-3.34h-3.08V73.62h1V67h1.54c1.69,0,2.77.55,2.77,2.51v2.33a3.38,3.38,0,0,0,.32,1.77h1a3.26,3.26,0,0,1-.36-1.77v-2.3c0-1.61-.61-2.69-2.13-3C567.22,66.19,567.89,65.19,567.89,63.46Zm-1,.19c0,2-1,2.47-2.75,2.47h-1.56v-6.4h2.09c1.61,0,2.22,1,2.22,2.54Z"/><rect class="cls-2" x="569.8" y="58.83" width="0.97" height="14.79"/><polygon class="cls-2" points="578.29 59.72 578.29 58.83 572.46 58.83 572.46 73.62 578.29 73.62 578.29 72.74 573.43 72.74 573.43 66.57 577.47 66.57 577.47 65.68 573.43 65.68 573.43 59.72 578.29 59.72"/><polygon class="cls-2" points="584.55 73.62 585.63 73.62 585.63 58.83 584.74 58.83 584.74 71.32 580.3 58.83 579.03 58.83 579.03 73.62 579.92 73.62 579.92 60.44 584.55 73.62"/><path class="cls-2" d="M593.62,63.67V62.45c0-2.14-.93-3.74-3.2-3.74s-3.19,1.6-3.19,3.74V70c0,2.13.93,3.74,3.19,3.74s3.2-1.61,3.2-3.74V68.32h-.93v1.75c0,1.59-.62,2.77-2.24,2.77s-2.24-1.18-2.24-2.77V62.38c0-1.58.61-2.79,2.24-2.79s2.24,1.21,2.24,2.79v1.29Z"/><rect class="cls-2" x="595.2" y="58.83" width="0.97" height="14.79"/><path class="cls-2" d="M603.46,70.35l.74,3.27h1l-3.3-14.81h-1.41l-3.24,14.81h.89l.74-3.27Zm-2.32-10.42,2.18,9.57H599Z"/><path class="cls-2" d="M477.48,73.83h6.71V71.72H479.8a1.72,1.72,0,0,1,0-.32c0-2.43,4.63-4.16,4.63-8.81,0-2.36-1.19-3.72-3.47-3.72s-3.46,1.36-3.46,3.72V64h2.19V62.44c0-1,.47-1.45,1.21-1.45s1.2.36,1.2,1.69c0,4.26-4.6,5-4.6,9.34Z"/><path class="cls-2" d="M492.71,70.28V62.59c0-2.36-1.24-3.72-3.53-3.72s-3.52,1.36-3.52,3.72v7.69c0,2.37,1.24,3.72,3.52,3.72S492.71,72.65,492.71,70.28Zm-4.73.15v-8c0-1,.46-1.45,1.2-1.45s1.21.4,1.21,1.45v8c0,1.06-.47,1.46-1.21,1.46S488,71.49,488,70.43Z"/><path class="cls-2" d="M502.27,71.15l.4,2.68H505L502.65,59h-3.4l-2.37,14.79H499l.4-2.68Zm-1.44-9.49L502,69.14h-2.24Z"/><path class="cls-2" d="M508.93,57.73c.63,0,1,.53,1.9.53a1.84,1.84,0,0,0,1.79-1.44L511.5,56a.86.86,0,0,1-.9.61c-.64,0-1-.52-1.91-.52a1.84,1.84,0,0,0-1.79,1.43l1.12.79A.88.88,0,0,1,508.93,57.73Z"/><polygon class="cls-2" points="506.07 73.83 508.17 73.83 508.17 63.12 511.06 73.83 513.45 73.83 513.45 59.04 511.38 59.04 511.38 67.89 508.99 59.04 506.07 59.04 506.07 73.83"/><path class="cls-2" d="M522,70.28V62.59c0-2.36-1.25-3.72-3.53-3.72s-3.53,1.36-3.53,3.72v7.69c0,2.37,1.25,3.72,3.53,3.72S522,72.65,522,70.28Zm-4.74.15v-8c0-1,.47-1.45,1.21-1.45s1.2.4,1.2,1.45v8c0,1.06-.46,1.46-1.2,1.46S517.25,71.49,517.25,70.43Z"/><path class="cls-2" d="M523.13,69.37v.91c0,2.37,1.18,3.72,3.47,3.72s3.46-1.35,3.46-3.72c0-4.22-4.54-4.79-4.54-7.84,0-1,.42-1.45,1.16-1.45s1.16.4,1.16,1.45v.62H530v-.47c0-2.36-1.16-3.72-3.42-3.72s-3.42,1.36-3.42,3.72c0,4.23,4.54,4.8,4.54,7.84,0,1.06-.47,1.44-1.21,1.44s-1.2-.38-1.2-1.44V69.37Z"/><path class="cls-2" d="M608.23,46.51H473.76a1.27,1.27,0,0,0,0,2.53H608.23a3.46,3.46,0,0,1,3.46,3.45V81a3.46,3.46,0,0,1-3.46,3.46H473.76a1.27,1.27,0,0,0,0,2.53H608.23a6,6,0,0,0,6-6V52.49A6,6,0,0,0,608.23,46.51Z"/><path class="cls-2" d="M467.15,55.07a2.93,2.93,0,0,1-.72-2.75c.42-2.14-.09-3.28-1.81-3.85a4,4,0,0,1-2.82-2.85,2.48,2.48,0,0,0-3.17-1.84,4.07,4.07,0,0,1-4-1.11,2.45,2.45,0,0,0-3.54,0,4,4,0,0,1-4,1.08A2.41,2.41,0,0,0,444,45.5a4.29,4.29,0,0,1-3.13,3.07,2.43,2.43,0,0,0-1.64,3,4.07,4.07,0,0,1-1,4,3.49,3.49,0,0,0-.68,2c-.13,1,.66,1.75,1.26,2.48a2.13,2.13,0,0,1,.63,1.94c-.1.44-.13.89-.2,1.34a2.69,2.69,0,0,0,1.61,3c.53.24,1.08.44,1.62.67a2.55,2.55,0,0,1,1.19,3q-2,4.71-4,9.43c-.23.53-.43,1.06,0,1.57s1,.42,1.61.23l2.86-.91c.5,1,1,1.81,1.41,2.68.27.52.57,1,1.24.95s.91-.55,1.13-1.08q1.44-3.4,2.9-6.81l1.35-3.15h1.57c1.44,3.39,2.85,6.77,4.32,10.12a1.58,1.58,0,0,0,1.06.86,1.71,1.71,0,0,0,1.12-.78,17.77,17.77,0,0,0,1.24-2.32.56.56,0,0,1,.81-.33c.87.31,1.76.58,2.64.86.66.2,1.23,0,1.43-.61a2,2,0,0,0-.17-1.29c-1.32-3.15-2.68-6.29-4-9.45a1.71,1.71,0,0,1-.12-1,2.62,2.62,0,0,1,2.09-2.29,4.1,4.1,0,0,0,.87-.36,2.58,2.58,0,0,0,1.58-3,3.88,3.88,0,0,1,1.05-4,2.26,2.26,0,0,0,.64-2.35A5,5,0,0,0,467.15,55.07ZM446.54,80.2c-.34-.64-.62-1.13-.88-1.64a1.16,1.16,0,0,0-1.57-.65l-1.7.52c1.08-2.55,2.11-5,3.09-7.25a22.56,22.56,0,0,0,2.84-.25,1.73,1.73,0,0,1,1.88.66C449,74.38,447.81,77.21,446.54,80.2Zm16.78-1.79-1.69-.5a1.17,1.17,0,0,0-1.58.65c-.25.5-.52,1-.87,1.64l-3.64-8.57c.63-1.11,1.58-.7,2.45-.63l2.23.17C461.22,73.49,462.24,75.88,463.32,78.41Zm1.4-19.15a3.83,3.83,0,0,0-.56,3.38c.25,1.44.28,1.52-1.08,1.94a4.49,4.49,0,0,0-3.14,3.26c-.35,1.12-.45,1.19-1.57.91a4.89,4.89,0,0,0-4.9,1.49.73.73,0,0,1-1.21,0c-.13-.14-.33-.2-.45-.33a4.28,4.28,0,0,0-4.61-1.09c-.75.2-1.16,0-1.34-.75-.06-.23-.2-.44-.26-.67a3.63,3.63,0,0,0-2.67-2.67c-.23-.06-.43-.23-.66-.27-.79-.15-.94-.66-.8-1.34,0-.24.08-.48.14-.71a4,4,0,0,0-1.09-3.79c-1.17-1.38-1-1,0-2.41a.84.84,0,0,1,.15-.18,3.73,3.73,0,0,0,.9-3.68c0-.08,0-.15-.05-.23-.24-1.3-.27-1.41,1-1.78a4.49,4.49,0,0,0,3.28-3.42c.19-.76.58-1.15,1.43-.85a4.73,4.73,0,0,0,1,.16,3.29,3.29,0,0,0,2.9-.75c.21-.2.46-.36.69-.54,1-.79,1.12-.89,2,0A4.74,4.74,0,0,0,458.73,46a.76.76,0,0,1,1.06.6,1,1,0,0,1,0,.16,4.69,4.69,0,0,0,3.66,3.65c.46.11.95.3.79.86a16,16,0,0,1-.23,1.77,2.86,2.86,0,0,0,.66,2.51C466.15,57.44,466.18,57.47,464.72,59.26Z"/><path class="cls-2" d="M459,54.9c-.95-.23-1.94-.28-2.9-.48a1.39,1.39,0,0,1-.8-.58c-.5-.88-.86-1.83-1.39-2.68a1.56,1.56,0,0,0-1.09-.71,1.5,1.5,0,0,0-1,.68,7.64,7.64,0,0,0-.93,1.85,2.11,2.11,0,0,1-2.26,1.64,6.25,6.25,0,0,0-2,.29,1.88,1.88,0,0,0-1.12.81A1.57,1.57,0,0,0,446,57c.65.76,1.45,1.4,2.13,2.14a1.37,1.37,0,0,1,.3,1c-.07.79-.26,1.56-.38,2.35s-.43,1.38.28,1.91,1.35,0,2-.32c.86-.42,1.7-1.21,2.55-1.2s1.75.77,2.62,1.2l1.15.55a1.16,1.16,0,0,0,1.25-1.42c-.16-1-.32-2-.52-3a1,1,0,0,1,.34-1.13c.71-.63,1.38-1.32,2.07-2,.4-.39.79-.87.47-1.38A2,2,0,0,0,459,54.9Zm-3.73,6.48a3.38,3.38,0,0,0-4.82.06c.66-2,.32-3.49-1.53-4.62a3.47,3.47,0,0,0,3.92-2.9,3.43,3.43,0,0,0,3.95,2.85C455.11,58,454.47,59.36,455.28,61.38Z"/><path class="cls-2" d="M348.36,31.26a32.2,32.2,0,0,0-30.13,20.93h2.08a30.21,30.21,0,0,1,56.09,0h2.09A32.22,32.22,0,0,0,348.36,31.26Z"/><path class="cls-2" d="M335.24,52.19h1.39a16.48,16.48,0,0,1,22.55,0h1.39a17.46,17.46,0,0,0-25.33,0Z"/><path class="cls-2" d="M387.17,54.2H308.65l4.58,10.07-4.58,10.08h78.52l-4.58-10.08Zm-2,18.75H310.64l3.94-8.68-3.94-8.67h74.53l-3.93,8.67Z"/><path class="cls-2" d="M387.56,74.6h-79.3L313,64.27,308.26,54h79.3l-4.7,10.32ZM309,74.1h77.74l-4.47-9.83.05-.1,4.42-9.72H309l4.46,9.82-.05.11Zm76.52-.9H310.25l4.06-8.93-4.06-8.92h75.31l-4.05,8.92ZM311,72.7h73.76L381,64.27l.05-.1,3.78-8.32H311l3.83,8.42-.05.11Z"/><path class="cls-2" d="M320.67,64.27a1.7,1.7,0,1,1-1.7-1.7A1.7,1.7,0,0,1,320.67,64.27Z"/><path class="cls-2" d="M375.15,64.27a1.7,1.7,0,1,0,1.7-1.7A1.7,1.7,0,0,0,375.15,64.27Z"/><path class="cls-2" d="M360.57,76.36h-1.39a16.45,16.45,0,0,1-22.55,0h-1.39a17.46,17.46,0,0,0,25.33,0Z"/><path class="cls-2" d="M348.36,95.58a32.19,32.19,0,0,0,29.43-19.22h-2.13a30.22,30.22,0,0,1-54.61,0h-2.13A32.21,32.21,0,0,0,348.36,95.58Z"/><path class="cls-2" d="M334.36,49.81a1.11,1.11,0,0,1-.19.18,1.08,1.08,0,0,1-.28.16,1.06,1.06,0,0,1-.37.09,1.27,1.27,0,0,1-.46-.05,2.05,2.05,0,0,1-.57-.24,3.85,3.85,0,0,1-.66-.48L330.14,48a5,5,0,0,1-.56-.61,2.35,2.35,0,0,1-.29-.53,1.37,1.37,0,0,1-.08-.47,1.24,1.24,0,0,1,.08-.4,1.2,1.2,0,0,1,.17-.34,2.56,2.56,0,0,1,.2-.26,1.89,1.89,0,0,1,.51-.42,1.2,1.2,0,0,1,.5-.13,1.13,1.13,0,0,1,.48.11,1.76,1.76,0,0,1,.44.29,3.44,3.44,0,0,1,.27.27l.24.3-.51.58-.23-.2c-.52-.47-.9-.56-1.15-.28a.75.75,0,0,0-.14.24.43.43,0,0,0,0,.25,1,1,0,0,0,.18.3,2.42,2.42,0,0,0,.36.37l2.15,1.9a3.45,3.45,0,0,0,.39.3.86.86,0,0,0,.31.13.42.42,0,0,0,.25,0,.73.73,0,0,0,.21-.16.47.47,0,0,0,.12-.27.61.61,0,0,0-.05-.29,1.45,1.45,0,0,0-.18-.31,2.16,2.16,0,0,0-.3-.31l-.62-.55-.32.37-.48-.42.95-1.07,2.41,2.13L335,49l-.52-.32a1.33,1.33,0,0,1,.1.65A1,1,0,0,1,334.36,49.81Z"/><path class="cls-2" d="M332.64,42.61l.88-.68,4.8,4.33-.78.59-.83-.8-.92.71.56,1-.77.6Zm3.54,2.93-2.27-2.24,0,0,1.57,2.78Z"/><path class="cls-2" d="M335.81,40.41l.94-.47.36-.16a1.93,1.93,0,0,1,.41-.12,1.65,1.65,0,0,1,.45,0,1.26,1.26,0,0,1,.45.12,1.9,1.9,0,0,1,.45.34,2.89,2.89,0,0,1,.41.62l.07.14a3,3,0,0,1,.34,1.15,1.31,1.31,0,0,1-.26.86l2,1.82-.91.46-1.81-1.75-.33.16,1.06,2.12-.84.42Zm2.44,2.45a1.51,1.51,0,0,0,.35-.24.54.54,0,0,0,.17-.3.82.82,0,0,0,0-.38,2.59,2.59,0,0,0-.2-.5l-.22-.45a1.49,1.49,0,0,0-.23-.36.73.73,0,0,0-.27-.2.67.67,0,0,0-.32,0,1.21,1.21,0,0,0-.42.14l-.13.07,1.15,2.3Z"/><path class="cls-2" d="M341,38.25,342,38l2.8,5.82-.94.26L343.42,43l-1.12.3.14,1.14-.95.26Zm2.16,4.06-1.26-2.94h0l.4,3.17Z"/><path class="cls-2" d="M344.76,37.4l.78,0,1.81,4.14h0c0-.09,0-.2-.05-.32s0-.26-.06-.41,0-.33-.06-.53,0-.41-.05-.66L347,37.25l.86,0,.41,6.33-.79,0-1.79-4h0c0,.12,0,.24,0,.36s0,.29.06.46.05.38.07.61,0,.51.06.83l.12,1.87-.85,0Z"/><path class="cls-2" d="M350.4,38.13l-1-.13.1-.75,3,.37-.1.75-1-.12-.7,5.55-.95-.12Z"/><path class="cls-2" d="M353.75,38l.93.24L353,44.33l-.93-.25Zm.22-.49,1.36-.47.3.72-1.4.27Z"/><path class="cls-2" d="M357.06,39l1,.44-1.44,6.3-.9-.39.29-1.11L355,43.79l-.61,1-.89-.39Zm-.84,4.53.84-3.08,0,0-1.67,2.73Z"/><path class="cls-2" d="M362.26,41.86l.77.63.35.31a1.61,1.61,0,0,1,.32.37,1.56,1.56,0,0,1,.21.43,1.17,1.17,0,0,1,0,.53,1.82,1.82,0,0,1-.21.65,3.63,3.63,0,0,1-.52.78L362,47a3.82,3.82,0,0,1-.66.67,2,2,0,0,1-.59.33,1.25,1.25,0,0,1-.53.07,1.31,1.31,0,0,1-.47-.12,2,2,0,0,1-.42-.24c-.13-.09-.25-.19-.37-.29l-.77-.63ZM359.59,47a1.24,1.24,0,0,0,.37.22.56.56,0,0,0,.36,0,1.08,1.08,0,0,0,.4-.27,5.71,5.71,0,0,0,.5-.54l1.25-1.53c.18-.23.33-.43.43-.59a1.21,1.21,0,0,0,.19-.44.56.56,0,0,0-.06-.36,1.18,1.18,0,0,0-.29-.32l-.18-.16-3.16,3.85Z"/><path class="cls-2" d="M365.86,45.1l1.52,1.79-.58.49-.9-1.06-1.45,1.23.7.82-.58.49-.7-.82-1.65,1.41.92,1.09-.58.49L361,49.2Z"/><path class="cls-2" d="M336.49,63.63v.22a1,1,0,0,1-.1.52,2.8,2.8,0,0,1-.24.36,26,26,0,0,1-1.83,2.08,19.39,19.39,0,0,1-2.17,1.91,12.46,12.46,0,0,1-2.36,1.39,5.89,5.89,0,0,1-2.41.54,4,4,0,0,1-1.47-.25,3.3,3.3,0,0,1-1.15-.72,3.19,3.19,0,0,1-.73-1.16,4.35,4.35,0,0,1-.26-1.59,5.58,5.58,0,0,1,.13-1.2,10.28,10.28,0,0,1,.36-1.25c.15-.42.32-.83.5-1.24l.55-1.19.26-.38a2.13,2.13,0,0,0,.22-.38h-.14a6.24,6.24,0,0,0-2.79.5,1.45,1.45,0,0,0-1,1.27.66.66,0,0,0,.05.25.51.51,0,0,1,0,.2.9.9,0,0,1,0,.15.17.17,0,0,1-.18.12.33.33,0,0,1-.23-.09,1.06,1.06,0,0,1-.17-.23,1.59,1.59,0,0,1-.12-.27.75.75,0,0,1,0-.24,1.65,1.65,0,0,1,.5-1.2,3.77,3.77,0,0,1,1.18-.72,6.87,6.87,0,0,1,1.47-.36c.53-.06,1-.11,1.38-.13a1.43,1.43,0,0,0,.55-.14,1.38,1.38,0,0,0,.4-.33,11.88,11.88,0,0,1,1-1.07,9.86,9.86,0,0,1,1.16-1,8.7,8.7,0,0,1,1.31-.78,6.43,6.43,0,0,1,1.38-.47,2.06,2.06,0,0,1,.76-.14,2.55,2.55,0,0,1,.72.1,2.37,2.37,0,0,1,.65.28,1.71,1.71,0,0,1,.49.43,1,1,0,0,1,.19.56,1,1,0,0,1-.18.57,2.12,2.12,0,0,1-.45.51c-.36.29-.71.54-1,.77a9.24,9.24,0,0,1-1,.61,7.82,7.82,0,0,1-1.15.43,9.4,9.4,0,0,1-1.36.26l-.69.08a.4.4,0,0,0-.35.21,6.77,6.77,0,0,0-.84,1.18,13.25,13.25,0,0,0-.73,1.46,11.18,11.18,0,0,0-.51,1.58,6.39,6.39,0,0,0-.19,1.52,3.51,3.51,0,0,0,.12.94,2.11,2.11,0,0,0,.37.75,1.65,1.65,0,0,0,.65.51,2.3,2.3,0,0,0,1,.18,5.14,5.14,0,0,0,1-.11,8.65,8.65,0,0,0,2.2-1,18.71,18.71,0,0,0,2-1.52c.65-.55,1.25-1.11,1.82-1.69S336,64.1,336.49,63.63Zm-2.93-5.78a1.48,1.48,0,0,0-.76-.21,2.6,2.6,0,0,0-1.15.29,7.41,7.41,0,0,0-1.18.69,9.86,9.86,0,0,0-1,.84c-.31.3-.55.54-.71.73a.76.76,0,0,0,.24,0,4.13,4.13,0,0,0,.86-.11,10.37,10.37,0,0,0,1-.31c.34-.13.68-.27,1-.43a8.4,8.4,0,0,0,.87-.5,3.46,3.46,0,0,0,.63-.5.76.76,0,0,0,.23-.47Z"/><path class="cls-2" d="M341.9,66.46l.31-.5.4-.61c.13-.21.27-.41.39-.61l.32-.51c.05-.08.1-.07.17,0a.52.52,0,0,1,.13.2,1.22,1.22,0,0,1,0,.22c-.18.39-.39.82-.64,1.29a10.36,10.36,0,0,1-.82,1.28,5.15,5.15,0,0,1-1,1,1.93,1.93,0,0,1-1.15.4.9.9,0,0,1-.66-.26c-.17-.18-.38-.42-.62-.73a11.32,11.32,0,0,1-1,.72,2,2,0,0,1-1.06.34,1,1,0,0,1-.51-.15,1.58,1.58,0,0,1-.48-.42,1.91,1.91,0,0,1-.35-.63,2.28,2.28,0,0,1-.14-.8,4.08,4.08,0,0,1,.32-1.53,5.56,5.56,0,0,1,.83-1.41,4.31,4.31,0,0,1,1.18-1,2.7,2.7,0,0,1,1.4-.41,3,3,0,0,1,1.31.31l.44-.37a.78.78,0,0,1,.5-.21.79.79,0,0,1,.24,0,1.59,1.59,0,0,1,.27.12.66.66,0,0,1,.23.21.44.44,0,0,1,.09.27.75.75,0,0,1-.08.29,2,2,0,0,1-.17.3l-.39.85q-.19.41-.36.81a8.11,8.11,0,0,0-.31.82c-.09.29-.17.59-.24.91a2.63,2.63,0,0,0-.12.43,1.89,1.89,0,0,0,0,.31c0,.22.08.34.22.34a.64.64,0,0,0,.32-.12,2.47,2.47,0,0,0,.38-.31,3,3,0,0,0,.38-.41C341.69,66.75,341.8,66.6,341.9,66.46Zm-2-3.28a.54.54,0,0,0-.29-.07,1.49,1.49,0,0,0-.82.39,6.34,6.34,0,0,0-1,1,6.73,6.73,0,0,0-.82,1.27,2.9,2.9,0,0,0-.34,1.3.61.61,0,0,0,.52.68,4.49,4.49,0,0,0,.87-.55,4.62,4.62,0,0,0,.68-.71,6.06,6.06,0,0,1,.19-.8,9.18,9.18,0,0,1,.31-.88c.13-.3.24-.58.36-.86A8,8,0,0,0,339.86,63.18Z"/><path class="cls-2" d="M344.11,65.36c-.17.46-.32.93-.47,1.42a5.16,5.16,0,0,0-.21,1.39,1.91,1.91,0,0,0,0,.32,2,2,0,0,0,.11.35,1.06,1.06,0,0,0,.18.27.33.33,0,0,0,.25.12,1.4,1.4,0,0,0,.91-.35,4.58,4.58,0,0,0,.78-.85,9,9,0,0,0,.62-1c.18-.36.33-.65.46-.87l.13-.32.23-.54q.14-.28.27-.51t.24-.24a.22.22,0,0,1,.2.13.57.57,0,0,1,.07.21.45.45,0,0,1,0,.18c-.19.47-.42,1-.7,1.57a12.31,12.31,0,0,1-.93,1.63,6.4,6.4,0,0,1-1.1,1.28,1.82,1.82,0,0,1-2.32.17,1.52,1.52,0,0,1-.65-1l-.06-.29a1.23,1.23,0,0,1,0-.2V68a6.93,6.93,0,0,1,.22-1.51,18.28,18.28,0,0,1,.57-1.92q.35-1,.81-2.07c.3-.7.61-1.36.93-2s.63-1.18.94-1.66a5.52,5.52,0,0,1,.84-1.09,1.18,1.18,0,0,1,.53-.43,1.65,1.65,0,0,1,.69-.15,2,2,0,0,1,.48.06,1.54,1.54,0,0,1,.43.2,1,1,0,0,1,.31.37,1.16,1.16,0,0,1,.13.58,5.6,5.6,0,0,1-1.26,2.92A29.84,29.84,0,0,1,344.11,65.36Zm2.83-5.81c-.38.69-.75,1.39-1.12,2.08s-.71,1.37-1,2.06a25.19,25.19,0,0,0,1.91-2.16A14,14,0,0,0,347.76,60a4.44,4.44,0,0,0,.44-1,2.91,2.91,0,0,0,.09-.59.61.61,0,0,0,0-.15.84.84,0,0,1,0-.1l0-.06a.64.64,0,0,0-.45.17,1.35,1.35,0,0,0-.33.38,4.47,4.47,0,0,0-.25.49Q347.06,59.33,346.94,59.55Z"/><path class="cls-2" d="M347.82,67.77a.8.8,0,0,0,.49-.18,2.48,2.48,0,0,0,.47-.45,6,6,0,0,0,.42-.57l.38-.56a4.74,4.74,0,0,0,.3-.42c.11-.18.23-.35.34-.51s.23-.3.34-.42.21-.18.28-.18a.34.34,0,0,1,.2.06.2.2,0,0,1,.09.17.61.61,0,0,1,0,.16A.65.65,0,0,1,351,65c-.17.3-.38.65-.63,1.07a11.78,11.78,0,0,1-.8,1.19,5.59,5.59,0,0,1-.91,1,1.49,1.49,0,0,1-.94.4,1.05,1.05,0,0,1-.5-.14,1.83,1.83,0,0,1-.44-.35,1.77,1.77,0,0,1-.31-.49,1.32,1.32,0,0,1-.12-.54,5.68,5.68,0,0,1,.11-1,8,8,0,0,1,.75-2.11,8.88,8.88,0,0,1,.58-.91,1.86,1.86,0,0,1,.5-.47,1.15,1.15,0,0,1,.65-.19.57.57,0,0,1,.36.1.32.32,0,0,1,.15.29,1,1,0,0,1-.14.45c-.09.16-.16.3-.22.42a13.49,13.49,0,0,0-.73,1.54,11.93,11.93,0,0,0-.52,1.63c0,.09-.05.19-.08.29a1.13,1.13,0,0,0,0,.3A.67.67,0,0,0,347.82,67.77Zm2.65-6.71v.07a.17.17,0,0,1,0,.07.75.75,0,0,1-.28.6,1,1,0,0,1-.63.23,1,1,0,0,1-.66-.22.66.66,0,0,1-.28-.52.63.63,0,0,1,.29-.55,1,1,0,0,1,.59-.2.88.88,0,0,1,.53.16A4.82,4.82,0,0,1,350.47,61.06Z"/><path class="cls-2" d="M355.07,62.5c.2-.39.36-.72.49-1s.26-.55.38-.79.24-.48.37-.72.28-.5.47-.8a2.9,2.9,0,0,1,.4-.52.77.77,0,0,1,.56-.26.52.52,0,0,1,.34.12.37.37,0,0,1,.15.3.77.77,0,0,1-.07.39q-.07.2-.15.36l-.72,1.62-.66,1.43c-.22.48-.43,1-.64,1.44s-.39,1-.56,1.48a11.88,11.88,0,0,0-.43,1.52l0,.19a.75.75,0,0,0,0,.21,1.53,1.53,0,0,0,.05.3.25.25,0,0,0,.27.2.51.51,0,0,0,.3-.14,3,3,0,0,0,.34-.36l.34-.45c.12-.16.21-.29.28-.4.21-.31.4-.63.58-.94l.54-1a.54.54,0,0,0,.13-.22c0-.08.11-.12.25-.12a.32.32,0,0,1,.21.08.22.22,0,0,1,.09.17.89.89,0,0,1,0,.22c0,.07-.05.14-.07.19-.2.38-.4.79-.61,1.24a13.83,13.83,0,0,1-.68,1.27,5.54,5.54,0,0,1-.79,1,1.35,1.35,0,0,1-.95.4,1.47,1.47,0,0,1-.64-.13,1.55,1.55,0,0,1-.48-.36,2.23,2.23,0,0,1-.33-.51,3.83,3.83,0,0,1-.22-.56c-.17.13-.33.27-.48.41a5.85,5.85,0,0,1-.47.4,3.14,3.14,0,0,1-.49.29,1.31,1.31,0,0,1-.56.12,1.49,1.49,0,0,1-1.15-.51,2,2,0,0,1-.45-1.36,4.58,4.58,0,0,1,.28-1.55,5.38,5.38,0,0,1,.8-1.45,4.37,4.37,0,0,1,1.23-1.08,3,3,0,0,1,1.56-.42A3.84,3.84,0,0,1,355.07,62.5Zm-3.29,5.11s0,0,0,0h.05l.16,0a6.1,6.1,0,0,0,.6-.38,4.69,4.69,0,0,0,.55-.42,2.38,2.38,0,0,0,.4-.5,1.9,1.9,0,0,0,.22-.66,2.88,2.88,0,0,1,.15-.51c.06-.19.14-.38.22-.58l.27-.59c.09-.19.17-.37.24-.55l0-.11a.27.27,0,0,0,0-.13.25.25,0,0,0,0-.14s-.11-.07-.25-.07a.87.87,0,0,0-.52.17,4.38,4.38,0,0,0-.45.33,5.79,5.79,0,0,0-1.32,1.68,4.24,4.24,0,0,0-.53,2A.6.6,0,0,0,351.78,67.61Z"/><path class="cls-2" d="M363.93,66.46c.09-.13.19-.3.32-.5l.39-.61.4-.61c.13-.2.23-.37.31-.51s.11-.07.18,0a.67.67,0,0,1,.13.2.79.79,0,0,1,0,.22q-.27.59-.63,1.29a10.36,10.36,0,0,1-.82,1.28,5.15,5.15,0,0,1-1,1,2,2,0,0,1-1.16.4.89.89,0,0,1-.65-.26,6.58,6.58,0,0,1-.62-.73c-.32.25-.65.49-1,.72a2,2,0,0,1-1.06.34,1.06,1.06,0,0,1-.52-.15,1.68,1.68,0,0,1-.47-.42,1.93,1.93,0,0,1-.36-.63,2.28,2.28,0,0,1-.13-.8,4.06,4.06,0,0,1,.31-1.53,5.88,5.88,0,0,1,.83-1.41,4.35,4.35,0,0,1,1.19-1,2.67,2.67,0,0,1,1.4-.41,3,3,0,0,1,1.31.31l.44-.37a.76.76,0,0,1,.5-.21.79.79,0,0,1,.24,0,1.59,1.59,0,0,1,.27.12.63.63,0,0,1,.22.21.44.44,0,0,1,.09.27.61.61,0,0,1-.08.29,1.39,1.39,0,0,1-.17.3l-.38.85q-.19.41-.36.81a8.11,8.11,0,0,0-.31.82c-.09.29-.17.59-.24.91a2.63,2.63,0,0,0-.12.43,1.89,1.89,0,0,0,0,.31c0,.22.07.34.22.34a.61.61,0,0,0,.31-.12,2.12,2.12,0,0,0,.39-.31,3.76,3.76,0,0,0,.38-.41A5.36,5.36,0,0,0,363.93,66.46Zm-2-3.28a.57.57,0,0,0-.29-.07,1.46,1.46,0,0,0-.82.39,6.34,6.34,0,0,0-1,1,6.73,6.73,0,0,0-.82,1.27,2.9,2.9,0,0,0-.34,1.3.61.61,0,0,0,.52.68,4.37,4.37,0,0,0,1.55-1.26,4.81,4.81,0,0,1,.19-.8,9.18,9.18,0,0,1,.31-.88c.12-.3.24-.58.36-.86S361.81,63.4,361.9,63.18Z"/><path class="cls-2" d="M369.42,62.5c.19-.39.36-.72.49-1s.26-.55.38-.79.24-.48.37-.72.28-.5.47-.8a2.9,2.9,0,0,1,.4-.52.77.77,0,0,1,.56-.26.52.52,0,0,1,.34.12.36.36,0,0,1,.14.3.76.76,0,0,1-.06.39q-.08.2-.15.36l-.72,1.62L371,62.63c-.22.48-.43,1-.64,1.44s-.39,1-.57,1.48a13.71,13.71,0,0,0-.42,1.52l0,.19a.75.75,0,0,0,0,.21,1.53,1.53,0,0,0,.05.3.25.25,0,0,0,.27.2.56.56,0,0,0,.3-.14,3,3,0,0,0,.34-.36l.34-.45c.12-.16.21-.29.28-.4.21-.31.4-.63.58-.94l.54-1a.54.54,0,0,0,.13-.22c0-.08.11-.12.25-.12a.32.32,0,0,1,.21.08.22.22,0,0,1,.09.17.89.89,0,0,1,0,.22,1.82,1.82,0,0,1-.08.19c-.19.38-.39.79-.6,1.24a13.83,13.83,0,0,1-.68,1.27,5.16,5.16,0,0,1-.8,1,1.31,1.31,0,0,1-.94.4,1.47,1.47,0,0,1-.64-.13,1.44,1.44,0,0,1-.48-.36,2.23,2.23,0,0,1-.33-.51,3,3,0,0,1-.22-.56c-.17.13-.33.27-.48.41a5.85,5.85,0,0,1-.47.4,2.82,2.82,0,0,1-.5.29,1.23,1.23,0,0,1-.55.12,1.49,1.49,0,0,1-1.15-.51,2,2,0,0,1-.46-1.36,4.6,4.6,0,0,1,.29-1.55,5.12,5.12,0,0,1,.8-1.45,4.37,4.37,0,0,1,1.23-1.08,3,3,0,0,1,1.56-.42A3.84,3.84,0,0,1,369.42,62.5Zm-3.29,5.11s0,0,0,0h.05l.16,0c.2-.12.41-.24.6-.38a3.87,3.87,0,0,0,.54-.42,2.14,2.14,0,0,0,.41-.5,1.9,1.9,0,0,0,.22-.66,2.88,2.88,0,0,1,.15-.51c.06-.19.14-.38.22-.58l.26-.59c.09-.19.18-.37.25-.55l0-.11a.51.51,0,0,0,0-.13.25.25,0,0,0,0-.14s-.12-.07-.25-.07a.87.87,0,0,0-.52.17,4.38,4.38,0,0,0-.45.33,5.79,5.79,0,0,0-1.32,1.68,4.24,4.24,0,0,0-.53,2A.6.6,0,0,0,366.13,67.61Z"/><path class="cls-2" d="M333.62,77.67l1.62,1.7-.54.52-1-1-1.38,1.31.74.78-.55.52-.74-.78-1.57,1.5,1,1-.55.53L329,82.05Z"/><path class="cls-2" d="M332.54,83.73a2.47,2.47,0,0,1,.24-.29,3.58,3.58,0,0,1,.28-.26l.6.45-.18.24c-.1.14-.18.27-.25.39a1.16,1.16,0,0,0-.11.33.65.65,0,0,0,0,.28.7.7,0,0,0,.2.23.57.57,0,0,0,.43.13.71.71,0,0,0,.38-.27,2,2,0,0,0,.14-.23,1.17,1.17,0,0,0,.09-.24,2.5,2.5,0,0,0,.05-.29,2.4,2.4,0,0,0,0-.38l-.09-1.55a2.91,2.91,0,0,1,.07-.8,2.09,2.09,0,0,1,.33-.69,2,2,0,0,1,.42-.4,1.25,1.25,0,0,1,.5-.2,1.15,1.15,0,0,1,.55,0,1.55,1.55,0,0,1,.56.28,1.78,1.78,0,0,1,.49.51,1.25,1.25,0,0,1,.18.52,1.17,1.17,0,0,1-.07.49,2.22,2.22,0,0,1-.23.43,2.35,2.35,0,0,1-.25.28l-.29.26-.6-.44.18-.24a1.71,1.71,0,0,0,.35-.71.49.49,0,0,0-.22-.5.5.5,0,0,0-.42-.12.58.58,0,0,0-.34.25,1,1,0,0,0-.13.2.8.8,0,0,0-.07.2.64.64,0,0,0,0,.2,1.47,1.47,0,0,0,0,.21l.09,1.76a4,4,0,0,1-.08.89,2,2,0,0,1-.33.72,1.66,1.66,0,0,1-.45.43A1.36,1.36,0,0,1,334,86a1.49,1.49,0,0,1-.55,0,2.19,2.19,0,0,1-.57-.29,1.85,1.85,0,0,1-.5-.52,1.27,1.27,0,0,1-.19-.52,1.17,1.17,0,0,1,.07-.49A1.82,1.82,0,0,1,332.54,83.73Z"/><path class="cls-2" d="M338.59,81.8l.86.42.36.18a2.88,2.88,0,0,1,.35.26,1.51,1.51,0,0,1,.3.36,1.33,1.33,0,0,1,.17.46,1.74,1.74,0,0,1,0,.6,2.74,2.74,0,0,1-.26.76l-.1.2a3.9,3.9,0,0,1-.45.75,2.13,2.13,0,0,1-.48.44,1.29,1.29,0,0,1-.47.21,1.21,1.21,0,0,1-.46,0,1.43,1.43,0,0,1-.42-.09,2.39,2.39,0,0,1-.37-.15l-.08,0-.84,1.74-.87-.42Zm-.71,3.78a1.34,1.34,0,0,0,.43.12.64.64,0,0,0,.36-.09,1.16,1.16,0,0,0,.32-.31,4.68,4.68,0,0,0,.31-.53l.25-.52a2.35,2.35,0,0,0,.17-.45.79.79,0,0,0,0-.37.68.68,0,0,0-.17-.31,1.47,1.47,0,0,0-.38-.25l0,0-1.31,2.7Z"/><path class="cls-2" d="M341.82,83.27l1,.26.38.11a3.39,3.39,0,0,1,.39.18,1.54,1.54,0,0,1,.36.27,1.33,1.33,0,0,1,.26.39,1.35,1.35,0,0,1,.11.55,2.61,2.61,0,0,1-.09.74l0,.15a2.84,2.84,0,0,1-.5,1.09,1.28,1.28,0,0,1-.76.48l.35,2.72-1-.26-.22-2.51-.35-.09-.6,2.3-.91-.24Zm.23,3.44a1.43,1.43,0,0,0,.43.06.68.68,0,0,0,.32-.11.93.93,0,0,0,.24-.3,2.51,2.51,0,0,0,.18-.51l.13-.49a1.76,1.76,0,0,0,.06-.42.66.66,0,0,0-.07-.32.75.75,0,0,0-.23-.24,1.59,1.59,0,0,0-.41-.16l-.14,0-.65,2.5Z"/><path class="cls-2" d="M345.55,84.1l2.35.17-.06.75-1.39-.1-.13,1.9,1.07.07-.05.76-1.07-.08-.16,2.17,1.43.1-.06.76-2.38-.17Z"/><path class="cls-2" d="M348.84,89.31a2.55,2.55,0,0,1,0-.38c0-.12,0-.24,0-.38l.74-.07,0,.3a4.12,4.12,0,0,0,.08.45,1.06,1.06,0,0,0,.14.32.43.43,0,0,0,.21.19.58.58,0,0,0,.3,0,.55.55,0,0,0,.4-.2.58.58,0,0,0,.1-.45,1.93,1.93,0,0,0,0-.27,2.44,2.44,0,0,0-.1-.24,1.43,1.43,0,0,0-.16-.24,2.83,2.83,0,0,0-.25-.28L349.2,87a2.74,2.74,0,0,1-.48-.64,1.78,1.78,0,0,1-.22-.73,1.58,1.58,0,0,1,0-.58,1.15,1.15,0,0,1,.24-.48,1.31,1.31,0,0,1,.42-.35,1.88,1.88,0,0,1,.61-.16,1.78,1.78,0,0,1,.71.05,1.13,1.13,0,0,1,.47.26,1,1,0,0,1,.28.41,1.91,1.91,0,0,1,.12.47c0,.14,0,.26,0,.38s0,.25,0,.39l-.74.07,0-.3a1.68,1.68,0,0,0-.22-.76.51.51,0,0,0-.5-.22.52.52,0,0,0-.39.19.69.69,0,0,0-.09.42,1.44,1.44,0,0,0,.05.24.64.64,0,0,0,.08.19.57.57,0,0,0,.11.16,2.09,2.09,0,0,0,.14.17L351,87.42a4,4,0,0,1,.54.72,1.94,1.94,0,0,1,.24.75,1.79,1.79,0,0,1,0,.62,1.36,1.36,0,0,1-.26.49,1.48,1.48,0,0,1-.44.34,2,2,0,0,1-.62.16,1.82,1.82,0,0,1-.72,0,1.22,1.22,0,0,1-.48-.26,1,1,0,0,1-.28-.41A1.31,1.31,0,0,1,348.84,89.31Z"/><path class="cls-2" d="M353.23,88.73a1.76,1.76,0,0,1-.08-.37,3.71,3.71,0,0,1,0-.38l.72-.21.08.3c0,.16.11.3.16.42a.82.82,0,0,0,.2.29.51.51,0,0,0,.24.15.63.63,0,0,0,.3,0,.54.54,0,0,0,.36-.26.62.62,0,0,0,0-.47,1.45,1.45,0,0,0-.1-.25,1,1,0,0,0-.14-.22,1.29,1.29,0,0,0-.2-.21,2.89,2.89,0,0,0-.3-.23l-1.29-.86a2.91,2.91,0,0,1-.6-.55,1.93,1.93,0,0,1-.34-.67,1.47,1.47,0,0,1-.07-.58,1.3,1.3,0,0,1,.14-.52,1.16,1.16,0,0,1,.36-.41,1.73,1.73,0,0,1,.56-.28,1.68,1.68,0,0,1,.71-.08,1.23,1.23,0,0,1,.52.17,1,1,0,0,1,.34.35,2,2,0,0,1,.21.44,1.84,1.84,0,0,1,.07.37c0,.12,0,.25,0,.39l-.71.21L354.3,85a1.52,1.52,0,0,0-.36-.7.48.48,0,0,0-.52-.13.52.52,0,0,0-.35.26.6.6,0,0,0,0,.42c0,.09.06.16.09.23a.74.74,0,0,0,.12.17.66.66,0,0,0,.14.15l.17.13,1.45,1a3.6,3.6,0,0,1,.67.6,1.78,1.78,0,0,1,.37.69,1.5,1.5,0,0,1,.07.62,1.21,1.21,0,0,1-.16.53,1.42,1.42,0,0,1-.37.41,1.9,1.9,0,0,1-.57.28,2,2,0,0,1-.72.09,1.14,1.14,0,0,1-.52-.17,1,1,0,0,1-.35-.34A2.11,2.11,0,0,1,353.23,88.73Z"/><path class="cls-2" d="M355.41,82.67l.87-.41L359,88l-.87.4Z"/><path class="cls-2" d="M356.87,82l.82-.54,3.37,3.8,0,0-2.2-4.58.82-.54,2.55,5.92-.92.61Z"/><path class="cls-2" d="M365.59,83.37l-.25.22a1.41,1.41,0,0,1-.32.17,1.29,1.29,0,0,1-.4.08,1.17,1.17,0,0,1-.47-.07,2.13,2.13,0,0,1-.55-.27A4.52,4.52,0,0,1,363,83l-1.58-1.6a3.4,3.4,0,0,1-.52-.64,2.07,2.07,0,0,1-.26-.55,1.35,1.35,0,0,1-.06-.47,1.49,1.49,0,0,1,.28-.7,2.61,2.61,0,0,1,.22-.24,1.29,1.29,0,0,1,.24-.21,1.49,1.49,0,0,1,.3-.18,2.23,2.23,0,0,1,.39-.09,1.3,1.3,0,0,1,.46.06,2.13,2.13,0,0,1,.55.27,4.08,4.08,0,0,1,.64.54l1.58,1.6a3.74,3.74,0,0,1,.51.64A2.26,2.26,0,0,1,366,82a1.35,1.35,0,0,1,.06.47,1.45,1.45,0,0,1-.26.72A1.57,1.57,0,0,1,365.59,83.37Zm-.51-.51a.51.51,0,0,0,.14-.21.39.39,0,0,0,0-.24,1,1,0,0,0-.14-.3,4.32,4.32,0,0,0-.32-.38l-2-2a2.24,2.24,0,0,0-.39-.34.88.88,0,0,0-.3-.16.43.43,0,0,0-.25,0,.64.64,0,0,0-.21.14.51.51,0,0,0-.14.21.45.45,0,0,0,0,.26,1.11,1.11,0,0,0,.16.3,2.64,2.64,0,0,0,.33.39l2,2.06a2.37,2.37,0,0,0,.37.32.81.81,0,0,0,.29.15.36.36,0,0,0,.25,0A.85.85,0,0,0,365.08,82.86Z"/><path class="cls-2" d="M228.75,66.81a3.93,3.93,0,0,0-.23-.76,2.17,2.17,0,0,0-.42-.63,2.45,2.45,0,0,0-.74-.49,2.3,2.3,0,0,0-.86-.16,2.35,2.35,0,0,0-.87.16,2.28,2.28,0,0,0-.74.49,2.35,2.35,0,0,0-.41.63,4,4,0,0,0-.24.76,7.64,7.64,0,0,0-.1.82c0,.29,0,.56,0,.82s0,.52,0,.81a7.64,7.64,0,0,0,.1.82,4.29,4.29,0,0,0,.24.77,2.16,2.16,0,0,0,.41.62,2.28,2.28,0,0,0,.74.49,2.35,2.35,0,0,0,1.73,0,2.13,2.13,0,0,0,.74-.49,1.81,1.81,0,0,0,.41-.62,3.61,3.61,0,0,0,.24-.77,5.74,5.74,0,0,0,.1-.82c0-.28,0-.56,0-.81s0-.53,0-.82A5.74,5.74,0,0,0,228.75,66.81Z"/><path class="cls-2" d="M209.86,66.81a3.93,3.93,0,0,0-.23-.76,2.17,2.17,0,0,0-.42-.63,2.53,2.53,0,0,0-.73-.49,2.45,2.45,0,0,0-1.74,0,2.23,2.23,0,0,0-.73.49,2.17,2.17,0,0,0-.42.63,3.93,3.93,0,0,0-.23.76,4.59,4.59,0,0,0-.1.82c0,.29,0,.56,0,.82s0,.52,0,.81a4.59,4.59,0,0,0,.1.82,4.25,4.25,0,0,0,.23.77,2.16,2.16,0,0,0,.41.62,2.29,2.29,0,0,0,2.48.49,2.09,2.09,0,0,0,.73-.49,2,2,0,0,0,.42-.62,4.25,4.25,0,0,0,.23-.77,4.59,4.59,0,0,0,.1-.82c0-.28,0-.56,0-.81s0-.53,0-.82A4.59,4.59,0,0,0,209.86,66.81Z"/><path class="cls-2" d="M90.57,66.6a3.91,3.91,0,0,0-.22-.8,1.91,1.91,0,0,0-.4-.6,1.64,1.64,0,0,0-.43-.26,1.47,1.47,0,0,0-.58-.1,1.5,1.5,0,0,0-.58.1,1.43,1.43,0,0,0-.43.27,1.6,1.6,0,0,0-.39.59,3.83,3.83,0,0,0-.23.81,6.74,6.74,0,0,0-.07.92c0,.34,0,.67,0,1s0,.66,0,1a7,7,0,0,0,.07.93,3.74,3.74,0,0,0,.23.8,1.62,1.62,0,0,0,.4.6,1.43,1.43,0,0,0,.42.26,1.65,1.65,0,0,0,1.16,0,1.43,1.43,0,0,0,.43-.27,1.76,1.76,0,0,0,.4-.59,3.84,3.84,0,0,0,.22-.81,6.7,6.7,0,0,0,.08-.92c0-.34,0-.67,0-1s0-.66,0-1A7,7,0,0,0,90.57,66.6Z"/><path class="cls-2" d="M158.07,66.81a3.93,3.93,0,0,0-.23-.76,2.17,2.17,0,0,0-.42-.63,2.45,2.45,0,0,0-.74-.49,2.3,2.3,0,0,0-.86-.16,2.35,2.35,0,0,0-.87.16,2.28,2.28,0,0,0-.74.49,2.35,2.35,0,0,0-.41.63,3.36,3.36,0,0,0-.24.76,7.64,7.64,0,0,0-.1.82c0,.29,0,.56,0,.82s0,.52,0,.81a7.64,7.64,0,0,0,.1.82,3.61,3.61,0,0,0,.24.77,2,2,0,0,0,.41.62A2.28,2.28,0,0,0,155,72a2.35,2.35,0,0,0,1.73,0,2.13,2.13,0,0,0,.74-.49,1.81,1.81,0,0,0,.41-.62,3.61,3.61,0,0,0,.24-.77,5.74,5.74,0,0,0,.1-.82c0-.28,0-.56,0-.81s0-.53,0-.82A5.74,5.74,0,0,0,158.07,66.81Z"/><path class="cls-2" d="M244.89,51.77H61.64a17,17,0,0,0,0,33.95H244.89a17,17,0,1,0,0-33.95ZM63.53,71.26l-1.94-1-1.94,1L60,69.09l-1.57-1.53,2.17-.31,1-2,1,2,2.17.31-1.57,1.53Zm12.35,2.45H69.44V72.29l4-5a1.93,1.93,0,0,0,.47-1.22,1.28,1.28,0,0,0-.33-1,1.32,1.32,0,0,0-1-.32,1.59,1.59,0,0,0-.53.08,1,1,0,0,0-.43.25,1.09,1.09,0,0,0-.29.44,1.77,1.77,0,0,0-.11.7v.29H69.42v-.29a3.44,3.44,0,0,1,.23-1.26,2.75,2.75,0,0,1,.65-1,2.88,2.88,0,0,1,1-.65,3.79,3.79,0,0,1,2.83.11,2.83,2.83,0,0,1,1.08.91,2.63,2.63,0,0,1,.38.77,3.24,3.24,0,0,1,.13.92,3,3,0,0,1-.24,1.2,4.25,4.25,0,0,1-.66,1.07L71.9,72h4Zm8.21-2a3,3,0,0,1-1.7,1.94,3.6,3.6,0,0,1-1.45.28,3.82,3.82,0,0,1-1.39-.24A3.31,3.31,0,0,1,78.47,73a3.48,3.48,0,0,1-1-2.35v-.31h1.78v.28a2.4,2.4,0,0,0,.15.71,1.49,1.49,0,0,0,.32.48,1.31,1.31,0,0,0,.49.32,2,2,0,0,0,1.42,0,1.38,1.38,0,0,0,.47-.39,2.24,2.24,0,0,0,.42-1.45,2.91,2.91,0,0,0-.12-.85,1.66,1.66,0,0,0-.36-.62,1.45,1.45,0,0,0-.46-.34,1.87,1.87,0,0,0-1.46.07,1.32,1.32,0,0,0-.57.53l-.09.14h-1.8L78,63.36h6V65H79.55l-.11,2.08a2.26,2.26,0,0,1,.44-.22,3.53,3.53,0,0,1,2.54,0,3,3,0,0,1,.94.64,3.28,3.28,0,0,1,.72,1.19,4.54,4.54,0,0,1,.23,1.45A5,5,0,0,1,84.09,71.69Zm8.36-1.83a7.08,7.08,0,0,1-.18,1.19,4.19,4.19,0,0,1-.37,1,3.65,3.65,0,0,1-.64.89,3.13,3.13,0,0,1-1,.67A3.27,3.27,0,0,1,86.63,73a4,4,0,0,1-.65-.9,5.21,5.21,0,0,1-.37-1,7.08,7.08,0,0,1-.18-1.19c0-.41,0-.85,0-1.33s0-.92,0-1.34A6.92,6.92,0,0,1,85.61,66,5.09,5.09,0,0,1,86,65a3.94,3.94,0,0,1,.64-.89,3.24,3.24,0,0,1,1-.65,3.73,3.73,0,0,1,2.71,0,3.19,3.19,0,0,1,1,.65,3.65,3.65,0,0,1,.64.89,4.94,4.94,0,0,1,.38,1,8.11,8.11,0,0,1,.17,1.19c0,.42,0,.86,0,1.34S92.48,69.45,92.45,69.86Zm9.65.09H98.72v3.69H97.15V70H93.78V68.39h3.37V64.92h1.57v3.47h3.38Zm12.77-5h-5.41v2.44h4.75v1.77h-4.75V72h5.41v1.74h-7.25V63.17h7.25Zm5.63,8.8h-1.73l-3.55-10.54h1.91l2.54,7.75,2.48-7.75h1.9Zm11.84-8.8h-5.41v2.44h4.75v1.77h-4.75V72h5.41v1.74h-7.25V63.17h7.25Zm9.9,8.8h-1.87l-4.44-7.25v7.25h-1.78V63.17H136l4.44,7.28V63.17h1.79Zm9-8.79h-3v8.79h-1.85V64.92h-3V63.17h7.77ZM160,69.63a7,7,0,0,1-.19,1.14,4.49,4.49,0,0,1-.41,1,3.8,3.8,0,0,1-.72.94,3.72,3.72,0,0,1-1.32.86,4.4,4.4,0,0,1-1.56.29,4.32,4.32,0,0,1-1.56-.29,3.66,3.66,0,0,1-1.33-.87,3.54,3.54,0,0,1-.71-.93,5,5,0,0,1-.42-1,8.22,8.22,0,0,1-.19-1.14c0-.38-.05-.78-.05-1.18s0-.81.05-1.19a8.07,8.07,0,0,1,.19-1.13,5.67,5.67,0,0,1,.41-1.06,4.05,4.05,0,0,1,.72-.94,3.76,3.76,0,0,1,1.33-.86,4.41,4.41,0,0,1,3.12,0,3.74,3.74,0,0,1,1.33.87,4,4,0,0,1,.71.93,4.56,4.56,0,0,1,.41,1.06,6.83,6.83,0,0,1,.19,1.13c0,.39,0,.79,0,1.19S160.05,69.24,160,69.63Zm9,2.28a3.43,3.43,0,0,1-.66.9,3.5,3.5,0,0,1-1.38.82,5.13,5.13,0,0,1-1.65.26,4.33,4.33,0,0,1-3-1,4.06,4.06,0,0,1-.84-1.15,3.35,3.35,0,0,1-.32-1.45V70H163v.3a1.7,1.7,0,0,0,.17.73,2.11,2.11,0,0,0,.45.63,1.71,1.71,0,0,0,.73.4,3.76,3.76,0,0,0,1.94,0,1.52,1.52,0,0,0,.68-.38,1.35,1.35,0,0,0,.32-.4,1.42,1.42,0,0,0,.1-.55,1.22,1.22,0,0,0-.32-.83A1.82,1.82,0,0,0,166,69.4l-.77-.12-.8-.12a4.9,4.9,0,0,1-1.11-.3,3,3,0,0,1-.93-.58,2.67,2.67,0,0,1-.63-.89,2.86,2.86,0,0,1-.23-1.16,2.91,2.91,0,0,1,.26-1.2,3.13,3.13,0,0,1,.7-1A4,4,0,0,1,165.3,63a4.51,4.51,0,0,1,1.5.26,3.52,3.52,0,0,1,1.29.78,3.28,3.28,0,0,1,1,2.34v.3h-1.88l0-.27a2.39,2.39,0,0,0-.14-.6,1.6,1.6,0,0,0-.28-.48,1.76,1.76,0,0,0-.62-.43,2.8,2.8,0,0,0-1.81,0,1.63,1.63,0,0,0-.66.44,1.67,1.67,0,0,0-.25.4,1.44,1.44,0,0,0-.08.49,1,1,0,0,0,.09.45,1.14,1.14,0,0,0,.26.32,1.71,1.71,0,0,0,.4.22,2,2,0,0,0,.49.12l.83.12.83.14a3.9,3.9,0,0,1,2.16,1,2.79,2.79,0,0,1,.85,2.13A2.65,2.65,0,0,1,169,71.91Zm12.83-7h-5.41v2.44h4.75v1.77h-4.75V72h5.41v1.74h-7.25V63.17h7.25Zm7.14,8.8-2.37-3.82-2.33,3.82h-2.06l3.33-5.32-3.27-5.22h2.08l2.33,3.76,2.3-3.76h2l-3.29,5.22,3.33,5.32Zm5,0h-1.87V63.17H194Zm9.06-8.79h-3v8.79h-1.85V64.92h-3V63.17h7.78Zm8.72,4.71a6,6,0,0,1-.19,1.14,4.49,4.49,0,0,1-.41,1,4,4,0,0,1-2,1.8,4.34,4.34,0,0,1-3.12,0,3.66,3.66,0,0,1-1.33-.87,3.54,3.54,0,0,1-.71-.93,4.49,4.49,0,0,1-.41-1,6,6,0,0,1-.19-1.14,11.73,11.73,0,0,1,0-2.37,5.93,5.93,0,0,1,.19-1.13,4.56,4.56,0,0,1,.41-1.06,4,4,0,0,1,2-1.8,4.41,4.41,0,0,1,3.12,0,3.66,3.66,0,0,1,1.33.87,3.71,3.71,0,0,1,.71.93,4.56,4.56,0,0,1,.41,1.06,5.93,5.93,0,0,1,.19,1.13,11.72,11.72,0,0,1,.05,1.19A11.52,11.52,0,0,1,211.81,69.63Zm9,2.28a3.63,3.63,0,0,1-.65.9,3.54,3.54,0,0,1-1.39.82,5.09,5.09,0,0,1-1.65.26,4.31,4.31,0,0,1-3-1,3.71,3.71,0,0,1-.84-1.15,3.22,3.22,0,0,1-.33-1.45V70h1.9v.3A1.69,1.69,0,0,0,215,71a2.11,2.11,0,0,0,.45.63,1.77,1.77,0,0,0,.73.4,3.8,3.8,0,0,0,2,0,1.64,1.64,0,0,0,.68-.38,1.49,1.49,0,0,0,.31-.4,1.26,1.26,0,0,0,.1-.55,1.17,1.17,0,0,0-.32-.83,1.79,1.79,0,0,0-1.1-.48l-.78-.12-.8-.12a5,5,0,0,1-1.11-.3,3.17,3.17,0,0,1-.93-.58,2.67,2.67,0,0,1-.63-.89,2.86,2.86,0,0,1-.23-1.16,2.91,2.91,0,0,1,.26-1.2,3,3,0,0,1,.71-1A4,4,0,0,1,217.09,63a4.57,4.57,0,0,1,1.51.26,3.56,3.56,0,0,1,1.28.78,3.28,3.28,0,0,1,1,2.34v.3h-1.88l0-.27a2,2,0,0,0-.14-.6,1.41,1.41,0,0,0-.28-.48,1.68,1.68,0,0,0-.62-.43,2.8,2.8,0,0,0-1.81,0,1.63,1.63,0,0,0-.66.44,1.37,1.37,0,0,0-.24.4,1.22,1.22,0,0,0-.09.49.88.88,0,0,0,.1.45,1,1,0,0,0,.26.32,1.47,1.47,0,0,0,.39.22,2.07,2.07,0,0,0,.49.12l.84.12.82.14a3.84,3.84,0,0,1,2.16,1,2.79,2.79,0,0,1,.85,2.13A2.65,2.65,0,0,1,220.83,71.91Zm9.87-2.28a7,7,0,0,1-.19,1.14,4.49,4.49,0,0,1-.41,1,3.57,3.57,0,0,1-.72.94,3.72,3.72,0,0,1-1.32.86,4.4,4.4,0,0,1-1.56.29,4.32,4.32,0,0,1-1.56-.29,3.66,3.66,0,0,1-1.33-.87,3.54,3.54,0,0,1-.71-.93,5,5,0,0,1-.42-1,8.22,8.22,0,0,1-.19-1.14c0-.38,0-.78,0-1.18s0-.81,0-1.19a8.07,8.07,0,0,1,.19-1.13,5.09,5.09,0,0,1,.42-1.06,4,4,0,0,1,2-1.8,4.41,4.41,0,0,1,3.12,0,4.09,4.09,0,0,1,2,1.8,4.56,4.56,0,0,1,.41,1.06,6.83,6.83,0,0,1,.19,1.13c0,.39.05.79.05,1.19S230.73,69.24,230.7,69.63Zm9,2.28a3.43,3.43,0,0,1-.66.9,3.5,3.5,0,0,1-1.38.82,5.13,5.13,0,0,1-1.65.26,4.33,4.33,0,0,1-3.05-1,3.85,3.85,0,0,1-.83-1.15,3.22,3.22,0,0,1-.33-1.45V70h1.89v.3a1.7,1.7,0,0,0,.17.73,2.11,2.11,0,0,0,.45.63,1.71,1.71,0,0,0,.73.4A3.76,3.76,0,0,0,237,72a1.52,1.52,0,0,0,.68-.38,1.35,1.35,0,0,0,.32-.4,1.42,1.42,0,0,0,.1-.55,1.22,1.22,0,0,0-.32-.83,1.82,1.82,0,0,0-1.11-.48l-.77-.12-.8-.12a4.9,4.9,0,0,1-1.11-.3,3,3,0,0,1-.93-.58,2.67,2.67,0,0,1-.63-.89,2.86,2.86,0,0,1-.23-1.16,2.91,2.91,0,0,1,.26-1.2,3.13,3.13,0,0,1,.7-1A4,4,0,0,1,236,63a4.61,4.61,0,0,1,1.51.26,3.56,3.56,0,0,1,1.28.78,3.28,3.28,0,0,1,1,2.34v.3h-1.88l0-.27a2.39,2.39,0,0,0-.14-.6,1.41,1.41,0,0,0-.28-.48,1.76,1.76,0,0,0-.62-.43,2.8,2.8,0,0,0-1.81,0,1.63,1.63,0,0,0-.66.44,1.67,1.67,0,0,0-.25.4,1.44,1.44,0,0,0-.08.49,1,1,0,0,0,.09.45,1.35,1.35,0,0,0,.26.32,1.71,1.71,0,0,0,.4.22,2.07,2.07,0,0,0,.49.12l.83.12.83.14a3.9,3.9,0,0,1,2.16,1,2.79,2.79,0,0,1,.85,2.13A2.65,2.65,0,0,1,239.72,71.91Zm11.61-.65-1.94-1-1.94,1,.38-2.17-1.57-1.53,2.16-.31,1-2,1,2,2.17.31L251,69.09Z"/></g></g></svg>