<svg xmlns="http://www.w3.org/2000/svg" viewBox="0 0 115.94 104.96"><defs><style>.cls-1{fill:#fff;}.cls-2{fill:none;}</style></defs><g id="Capa_2" data-name="Capa 2"><g id="Capa_1-2" data-name="Capa 1"><g id="yx8v3h"><path class="cls-1" d="M18,79.05c.26-1.55,1.26-2.71,2.07-4q9.51-15,19-30,7.92-12.54,15.87-25a3.14,3.14,0,0,1,1.41-1.25,1.82,1.82,0,0,1,2.36,1.94c.06,3.38.09,6.75.13,10.13.16,15.8.26,31.61.51,47.41a7.68,7.68,0,0,1-4.19,7.23,25.06,25.06,0,0,1-9.09,3,45,45,0,0,1-16.92-.42,23.71,23.71,0,0,1-6.46-2.34c-2.25-1.24-4-2.87-4.66-5.5ZM55,27.43l-.19,0-28,44.36a42.46,42.46,0,0,1,14.61-1.58,31.32,31.32,0,0,1,14.09,3.68C55.29,58.28,55.14,42.86,55,27.43ZM38.63,85.34a35.4,35.4,0,0,0,11.94-1.87,10.43,10.43,0,0,0,4.13-2.34,1.84,1.84,0,0,0,0-3,5.09,5.09,0,0,0-1.43-1.08,32,32,0,0,0-5.09-2,39.49,39.49,0,0,0-19.47.08,14.76,14.76,0,0,0-5.66,2.6c-1.53,1.23-1.64,2.5-.07,3.67a16.13,16.13,0,0,0,3.77,2A34.32,34.32,0,0,0,38.63,85.34Z"/><path class="cls-1" d="M63.08,52.6V32.11a7.38,7.38,0,0,1,0-.94A1.88,1.88,0,0,1,66.25,30a6.06,6.06,0,0,1,.62.71L96,68.49c.43.56.94,1.06,1.33,1.65,1.76,2.63,1.28,5.58-1.22,7.78a17.13,17.13,0,0,1-8.19,3.72,33.57,33.57,0,0,1-17-.7,14.09,14.09,0,0,1-6.11-3.55,6.24,6.24,0,0,1-1.77-4.47C63.1,66.15,63.08,59.37,63.08,52.6Zm3.83,14.87c6.92-3.65,14.13-3.74,21.63-2.41-7.23-9.38-14.36-18.62-21.63-28Zm13.78,11.1a30.23,30.23,0,0,0,8-1.06,13.12,13.12,0,0,0,4.82-2.35c1.45-1.2,1.51-2.51,0-3.63a14.3,14.3,0,0,0-3-1.75,24.4,24.4,0,0,0-9.59-1.69A24.55,24.55,0,0,0,71,69.78a14.5,14.5,0,0,0-3.1,1.8c-1.4,1.06-1.37,2.35,0,3.47a10,10,0,0,0,1.68,1.15C73.07,78.05,76.87,78.46,80.69,78.57Z"/></g><rect class="cls-2" width="115.94" height="104.96"/></g></g></svg>