<svg xmlns="http://www.w3.org/2000/svg" viewBox="0 0 136.1 183.28"><defs><style>.cls-1{fill:#fff;}.cls-2{font-size:16px;fill:#707a80;font-family:Avenir-Book, Avenir;}.cls-3{fill:#0051ab;}.cls-4{fill:#e48010;}</style></defs><g id="Capa_2" data-name="Capa 2"><g id="Capa_1-2" data-name="Capa 1"><rect class="cls-1" width="136.1" height="183.28" rx="22.64"/><text class="cls-2" transform="translate(31.17 121.41)">Privacidad</text><g id="etOW40"><path class="cls-3" d="M54.65,69.33v-.56c0-2,0-4.09.05-6.13a13.23,13.23,0,0,1,9.56-12.07,13.37,13.37,0,0,1,16.57,8.8,14.13,14.13,0,0,1,.62,4.33v5.64c.43.07.82.11,1.2.2A4.38,4.38,0,0,1,85.92,74c0,1.8,0,3.59,0,5.39,0,4.55,0,9.09,0,13.64a4.27,4.27,0,0,1-2.51,4.23,5.25,5.25,0,0,1-2.1.45q-13.28,0-26.54,0a4.38,4.38,0,0,1-4.58-4.56c0-2.1,0-4.19,0-6.28,0-4.27,0-8.54,0-12.8a4.38,4.38,0,0,1,3.2-4.46C53.77,69.46,54.18,69.42,54.65,69.33Zm13.4,3H55c-1.38,0-1.85.47-1.85,1.84V92.88c0,1.33.49,1.82,1.82,1.82H81.12c1.33,0,1.82-.49,1.82-1.82q0-9.36,0-18.73c0-1.3-.49-1.78-1.79-1.79Zm10.4-3c0-2.19.06-4.31,0-6.43a10.41,10.41,0,0,0-20.8.54c0,1.8,0,3.59,0,5.39,0,.16,0,.32,0,.5Z"/><path class="cls-4" d="M66.57,87.3v-.14a3.58,3.58,0,0,0,0-1.47c-.18-.36-.73-.54-1.11-.82a4.45,4.45,0,0,1-1.48-5.33,4.41,4.41,0,0,1,4.75-2.66,4.43,4.43,0,0,1,1.16,8.46.44.44,0,0,0-.31.47c0,.94,0,1.88,0,2.81a1.49,1.49,0,1,1-3,0C66.56,88.19,66.57,87.75,66.57,87.3ZM68,82.77a1.39,1.39,0,0,0,1.51-1.45,1.48,1.48,0,1,0-3-.06A1.39,1.39,0,0,0,68,82.77Z"/></g></g></g></svg>