<svg xmlns="http://www.w3.org/2000/svg" viewBox="0 0 136.1 183.28"><defs><style>.cls-1{isolation:isolate;}.cls-2{fill:#fff;}.cls-3{fill:#0051ab;}.cls-4{fill:#e48010;}.cls-5{mix-blend-mode:multiply;}.cls-6{font-size:16px;fill:#707a80;font-family:Avenir-Book, Avenir;}</style></defs><g class="cls-1"><g id="Capa_2" data-name="Capa 2"><g id="Capa_1-2" data-name="Capa 1"><rect class="cls-2" width="136.1" height="183.28" rx="22.64"/><g id="jmFZpj"><path class="cls-3" d="M67.08,49.26A7,7,0,0,1,69.62,51a18.75,18.75,0,0,0,9.68,4.49c1,.16,2,.24,3,.36A5.08,5.08,0,0,1,87,61c0,3.51.07,7-.11,10.54a30.75,30.75,0,0,1-3.47,13.28,24.33,24.33,0,0,1-8.16,8.82,34.26,34.26,0,0,1-7.42,3.63,3.45,3.45,0,0,1-2.35.07,30,30,0,0,1-11.93-7.22,24.94,24.94,0,0,1-6.32-11.7A49.09,49.09,0,0,1,46,66.65c0-1.82.09-3.64.07-5.47a5.27,5.27,0,0,1,5.16-5.42,21,21,0,0,0,6.6-1.38A18.65,18.65,0,0,0,63.38,51,7,7,0,0,1,66,49.26Zm-18.19,17a44.29,44.29,0,0,0,1,11.36A22.05,22.05,0,0,0,57,89.49a28.17,28.17,0,0,0,9.2,5.1,1.27,1.27,0,0,0,.77,0,30.51,30.51,0,0,0,6.19-2.94,21.67,21.67,0,0,0,8.23-9.08A30.73,30.73,0,0,0,84,71.63a96.91,96.91,0,0,0,.09-10.78,2.2,2.2,0,0,0-2-2.18c-1.49-.21-3-.32-4.47-.62a21.2,21.2,0,0,1-10.55-5.48c-.62-.58-.64-.58-1.27,0a21.28,21.28,0,0,1-10.56,5.48c-1.44.29-2.92.39-4.38.6a2.22,2.22,0,0,0-2,2.35C48.88,62.76,48.89,64.52,48.89,66.28Z"/><path class="cls-4" d="M78.54,73.37a12,12,0,1,1-12-12A12.07,12.07,0,0,1,78.54,73.37Zm-2.84,0a9.19,9.19,0,1,0-9.22,9.17A9.2,9.2,0,0,0,75.7,73.41Z"/><path class="cls-4" d="M64.36,75.28l5.06-5.07c.19-.19.37-.39.57-.56a1.41,1.41,0,1,1,2,2c-1,1-2.06,2.07-3.09,3.11l-3.33,3.32a1.45,1.45,0,0,1-2.3,0L61,75.84a1.45,1.45,0,0,1-.12-2.1,1.41,1.41,0,0,1,2.12.11C63.44,74.3,63.87,74.77,64.36,75.28Z"/></g><g class="cls-5"><text class="cls-6" transform="translate(28.9 117.31)">Seguridad<tspan x="0" y="19.2">y confianza</tspan></text></g></g></g></g></svg>