<svg xmlns="http://www.w3.org/2000/svg" viewBox="0 0 136.1 183.28"><defs><style>.cls-1{isolation:isolate;}.cls-2{fill:#fff;}.cls-3{mix-blend-mode:multiply;}.cls-4{font-size:16px;fill:#707a80;font-family:Avenir-Book, Avenir;}.cls-5{fill:#0051ab;}.cls-6{fill:#e48010;}.cls-7{fill:#dadbe0;}</style></defs><g class="cls-1"><g id="Capa_2" data-name="Capa 2"><g id="Capa_1-2" data-name="Capa 1"><rect class="cls-2" width="136.1" height="183.28" rx="22.64"/><g class="cls-3"><text class="cls-4" transform="translate(18.33 124.45)">Conectividad</text></g><g id="XhSiMf"><path class="cls-5" d="M59.9,96.22c-1.22-1.2-2.42-2.38-3.61-3.57-1.66-1.65-3.32-3.3-5-5a.69.69,0,0,0-.8-.2,6.47,6.47,0,0,1-7-1.62A6.36,6.36,0,0,1,41.93,79a6.82,6.82,0,0,1,8.83-4.21.65.65,0,0,0,.59-.12c2.74-2.7,5.45-5.43,8.18-8.13.28-.28.19-.48.07-.76a6.91,6.91,0,0,1,4.83-9.58,6.77,6.77,0,0,1,8.11,7.43c-.09.76-.39,1.5-.56,2.26a.66.66,0,0,0,.1.54q4.08,4.11,8.18,8.21a.55.55,0,0,0,.67.12,6.76,6.76,0,1,1,.21,12.82.94.94,0,0,0-1.12.29q-4,4.05-8,8a.68.68,0,0,0-.16.92,6.45,6.45,0,0,1-.94,7.27,6.35,6.35,0,0,1-7,2.13,6.79,6.79,0,0,1-4-10ZM77.74,77l-8.35-8.32a6.66,6.66,0,0,1-7.19,0L53.84,77a6.72,6.72,0,0,1-.05,8l0,0,8.32,8.45c.23.24.4.12.61,0a6.31,6.31,0,0,1,5.91,0,.58.58,0,0,0,.82-.14q4-4,8-8l.31-.35A6.7,6.7,0,0,1,77.74,77ZM51.61,81.07a3.28,3.28,0,1,0-3.26,3.3A3.25,3.25,0,0,0,51.61,81.07Zm34.83,0a3.28,3.28,0,1,0-3.29,3.27A3.27,3.27,0,0,0,86.44,81.1ZM65.71,66.31A3.28,3.28,0,1,0,62.45,63,3.27,3.27,0,0,0,65.71,66.31Zm0,30A3.28,3.28,0,1,0,69,99.59,3.26,3.26,0,0,0,65.74,96.32Z"/><circle class="cls-6" cx="65.73" cy="81.09" r="4.7"/></g><circle class="cls-7" cx="37.3" cy="167.3" r="1.59"/></g></g></g></svg>